<?xml version="1.0" encoding="utf-8"?>
<!-- Generator: Adobe Illustrator 18.1.1, SVG Export Plug-In . SVG Version: 6.00 Build 0)  -->
<svg version="1.1" id="Layer_1" xmlns="http://www.w3.org/2000/svg" xmlns:xlink="http://www.w3.org/1999/xlink" x="0px" y="0px"
	 width="200px" height="200px" viewBox="0 0 200 200" style="enable-background:new 0 0 200 200;" xml:space="preserve">
<polygon style="fill:#878C85;" points="86.8,154.9 78.1,157.8 73.9,159.9 70,162.5 69.2,164.3 70.8,166 71.6,166 67.4,166 
	66.1,163.8 62,153.2 46.8,122.7 33.3,101.2 21.3,79.4 10,61.6 10,54.1 10.8,50.8 13,49.7 18.8,47.7 24.9,46.1 46.3,86.1 70.9,128.3 
	87.5,154 "/>
<polygon style="fill:#970F11;" points="24.6,46.6 34.3,65 44.3,81.8 55.7,101.7 58.4,106.7 75,134.2 88.2,154.8 128.4,142.7 
	194.4,120.8 188.1,114.1 149.4,65.5 120.5,26.9 118.6,25.9 112.3,26.9 66,36.8 "/>
<polygon style="fill:#FFFFFF;" points="67.2,66.5 65,67.1 62,67.8 59.5,69.6 58,71.9 58,75.3 60.9,80.9 66.3,88.6 70.8,91.4 
	76.6,92.7 79.9,92 82.7,91 83.9,91 91.5,92 102.3,91.1 111.5,89.2 121.6,84.6 127.6,80.1 128.9,78.4 129.7,77.7 132.4,76.9 
	134.8,76.1 136.4,74 136.5,71 134.7,66.5 130.4,60.1 126.1,55.8 122,54.5 119.2,54 116.6,54 114.1,55 112.7,55 108.6,54.4 100.2,54 
	96.2,54.4 90.9,55.1 85.2,56.5 79.5,58.4 73.6,60.8 "/>
<g>
	<path style="fill:#1A1A1A;" d="M192.5,118c-1.1-1.3-2.2-2.5-3.4-3.7c-1.1-1.3-2.2-2.7-3.3-4c-1-1.2-2.2-2.3-3.3-3.3
		c-2.9-3.7-5.4-7.6-8.2-11.4c-3-4.1-6.6-7.8-9.9-11.6c-3-3.5-5.6-7.3-8.4-10.9c-2.7-3.9-6-7.3-8.8-11.1c-1.9-2.6-3.7-5.3-5.6-7.9
		c-1.8-2.3-3.6-4.6-5.4-6.9c-1.9-2.3-3.5-4.6-5.2-7.1c-0.7-1-1.4-2-2.1-3c-1-1.2-1.9-2.3-2.7-3.6c-1.4-2.2-2.8-4.3-4.5-6.2
		c-0.6-0.7-1.2-1-1.8-1.2c-0.4-0.3-0.8-0.5-1.2-0.6c-0.1,0-0.6,0-1.2,0c-0.8,0.1-1.8,0.2-2.7,0.3c-0.2,0-15.5,3.7-20.3,4.7
		c-10.3,2.1-20.5,4-30.7,6.4c-0.2,0-0.4,0.1-0.6,0.1c-1.8,0.3-3.6,0.6-5.4,1c-10,2.1-19.8,5-29.8,6.9c-2.8,0.5-5.3,1.6-7.9,2.6
		c-0.8,0.2-1.6,0.4-2.5,0.7c0,0,0-0.1-0.1-0.1c-0.1-0.2-0.5-0.1-0.5,0.2c0,0,0,0.1,0,0.1c-1.1,0.3-2.2,0.7-3.4,1
		c-0.7,0.2-2.6,1.5-2.6,1.7c0,0-0.1,0-0.1,0.1c-0.8,2.8-1.1,9.5-0.9,9.7c0.1,0.1,0.5,1.9,0.7,2.7c0,0.2,5.3,7.3,7.6,11.1
		c0.8,1.3,1.6,2.6,2.4,3.9c0.8,1.6,1.7,3.1,2.5,4.7c0.1,0.8,6.1,12,6.1,12.5c0,0.3,3.1,4.6,4.3,6.8c1.5,2.6,10.7,17.1,11.3,18
		c0.4,0.9,0.8,1.8,1.3,2.6c0,0.1,0,0.1,0,0.2c0,0.1,0.1,0.2,0.2,0.3c0,0,0,0,0,0.1c1.5,2.5,2.9,5,4.2,7.6c0.5,1.1,5.6,12.2,6.3,13.5
		c0.6,1.2,1.3,2.4,1.9,3.6c0.3,0.6,2.5,6,2.9,6.8c0.1,0.3,4.6,10.1,5.7,11.2c0.2,0.2,0.4,0.3,0.7,0.3c0.2,0.1,1.3,0.8,2,0.8
		c0.2,0.1,1.6,0,1.8,0c1.1,0,2-0.3,2.9-0.4c0.3,0,4.6-1,4.9-1.1c0.1,0,0.9-0.2,1-0.2c1-0.2,14.4-4.2,16.2-4.7
		c10.8-2.7,42.2-14.3,47.7-15.6c5.3-1.2,36-12.5,38.6-13.2c1.2-0.3,9.1-2.4,10-2.8c0.3-0.1,0.8-3.9,1.2-5.4c0.2-0.8,0.6-1.8,0.5-2.6
		C194.5,119.9,193.5,118.9,192.5,118z M168.9,90.4c0.2,0.2,0.4,0.5,0.6,0.7 M75,134.2c-0.5-0.8-0.9-1.6-1.4-2.4 M79.9,141.7
		c-0.9-1.2-1.7-2.5-2.6-3.7c0.1-0.1,0-0.3-0.1-0.3c0,0,0,0,0,0c0,0,0,0,0,0c0.3-0.1,0.7-0.1,0.7-0.2 M115.1,146.5 M131.1,149
		c-1.2,0.4-2.3,0.8-3.5,1.1c0.1-0.1,0.1-0.2,0.2-0.3c1.8-0.5,3.6-1,5.3-1.6c0,0,0,0,0,0.1C132.5,148.5,131.8,148.7,131.1,149z
		 M78.3,165.2c-0.3,0.1-0.5,0.1-0.8,0.2c-0.6,0.1-1.1,0.2-1.7,0.3c-0.1-0.2-0.1-0.5-0.2-0.7c0.7-0.1,1.4-0.2,2.1-0.4
		c0.2,0,0.9-0.2,1.2-0.3c-0.1,0.3-0.2,0.6-0.3,0.9C78.5,165.2,78.4,165.2,78.3,165.2z M68.7,165.3c0.3,0,0.5-0.1,0.8-0.2
		c0,0.1,0.1,0.2,0.1,0.3c0.1,0.2-0.2,0.3-0.6,0.3C68.8,165.6,68.8,165.5,68.7,165.3z M66.5,162.7C66.6,162.7,66.6,162.7,66.5,162.7
		c0.4,0.5,0.6,1,0.9,1.4c0,0-0.1,0-0.1,0c-0.1,0-0.1,0.1,0,0.1c0.1,0,0.1,0,0.2,0.1c-0.2,0.2-0.2,0.7,0.2,0.7c0.1,0,0.1,0,0.2,0
		c0.1,0.1,0.1,0.2,0.2,0.3c-0.1,0-0.2,0-0.3,0C67.1,164.8,66.8,163.8,66.5,162.7z M64.7,157.4c-0.2-2.3-0.7-4.5-0.8-6.8
		C64.6,153.5,65,158,64.7,157.4z M53.4,134.9c-0.1-0.3-0.1-0.5-0.2-0.8c-0.6-3.2-1.1-6.5-0.6-9.7c0.8,1.6,0.6,4,0.7,5.6
		c0.1,2.1,0.4,4.2,0.8,6.3c-0.2-0.3-0.4-0.7-0.5-1C53.5,135.2,53.5,135.1,53.4,134.9z M51.8,131.7c-0.1-0.3-0.3-0.6-0.4-0.9l0.3-0.3
		c0.1,0.3,0.1,0.6,0.2,0.9c0,0.1,0.1,0.2,0.1,0.4C51.9,131.8,51.9,131.7,51.8,131.7z M39.6,108.8c-0.4-0.6-0.7-1.2-1.1-1.8
		c0,0,0.1,0,0.1,0c0.1,0.2,0.3,0.5,0.4,0.7c0.2,0.3,0.4,0.6,0.5,0.9C39.6,108.6,39.6,108.7,39.6,108.8z M36.9,104.2
		c-0.1-0.1-0.1-0.2-0.2-0.4C36.7,103.9,36.8,104,36.9,104.2C36.9,104.1,36.9,104.2,36.9,104.2z M31.6,63.6c0.7,1.1,1.4,2.3,1.9,3.5
		c0,0,0,0.1,0,0.1c1.4,2.6,2.9,5.2,4.4,7.7c0.6,1.3,1.2,2.6,1.9,3.9c0,0.1,0.1,0.3,0.1,0.4c-1.2-2.4-2.6-4.6-4-6.9
		c-1.3-2.2-2.5-4.4-3.8-6.5c-0.4-0.8-0.7-1.6-1-2.4c-0.1-0.3-0.2-0.5-0.3-0.8c0.1,0.1,0.2,0.1,0.3,0.1C31.3,63,31.5,63.3,31.6,63.6z
		 M50.9,96.8c0.2,0.5,0.4,0.9,0.6,1.4c-0.7-1.5-1.4-3-2.2-4.5c0.6,0.9,1.1,1.9,1.6,2.9C50.9,96.7,50.9,96.7,50.9,96.8z M51.3,101.9
		c0.1,0.1,0.2,0.1,0.3,0.1c0.3,0.6,0.6,1.2,0.9,1.8c1.2,2.3,2.4,4.7,3.5,7.1c0.7,1.4,1.2,2.9,2,4.4c-0.6-0.9-1.2-1.9-1.9-2.8
		c0-0.1-0.1-0.1-0.2-0.1c-1-2-2.1-4.1-3.1-6.1c-1.1-2.2-2.2-4.6-3.4-6.8c-0.3-0.7-0.6-1.4-1-2.2c-0.4-1-0.7-2-1.1-2.9
		c0.1,0.2,0.2,0.3,0.4,0.5c0.3,0.7,0.6,1.5,0.9,2.2C49.4,98.8,49.9,100.4,51.3,101.9z M61.8,116.1c0.1,0.2,0.2,0.4,0.4,0.6
		c-0.8-1.1-1.5-2.5-2.1-3.8c0-0.1-0.1-0.1-0.1-0.2c0.7,0.9,1.4,1.9,2,2.8C61.8,115.7,61.6,115.9,61.8,116.1z M76.4,138.2L76.4,138.2
		c1.2,1.7,2.4,3.3,3.6,4.9c0.5,0.7,1,1.4,1.5,2.1c-0.1,0.1-0.3,0.2-0.4,0.2c-1.6-2.3-3.1-4.7-4.8-7c-0.1-0.2-0.3-0.2-0.5-0.1
		c-0.4-0.5-0.8-1.1-1.3-1.6c-0.3-0.5-0.6-1.1-1-1.7c0.2-0.1,0.4-0.2,0.6-0.3c0.5,0.9,1,1.7,1.5,2.5c0.2,0.2,0.3,0.4,0.5,0.7
		C76.1,138,76.2,138.2,76.4,138.2z M82.2,151.5c0.3,0.3,0.8,0,0.7-0.3c0,0,0,0.1,0.1,0.1c0.1,0.4,0.2,0.7,0.3,1.1
		c-0.8-0.6-1.6-1.3-2.3-2c-0.2-0.5-0.4-1.1-0.7-1.6C81,149.7,81.6,150.6,82.2,151.5z M98.9,159.4c-0.4,0.1-0.7,0.2-1.1,0.3
		c0.1-0.5,0.2-0.9,0.4-1.3c1.8-0.5,3.6-1,5.4-1.6c-0.2,0.4-0.4,0.8-0.5,1.2C101.7,158.5,100.3,158.9,98.9,159.4z M79,164
		c-0.3,0.1-0.7,0.2-1,0.3c-0.2-0.6-0.4-1.3-0.6-1.9c0.1,0,0.2-0.1,0.3-0.1c0.3-0.1,0.7-0.2,1-0.3c0,0,0,0.1,0,0.1c0,0.1,0,0.1,0,0.2
		c0.1,0.4,0.3,0.8,0.4,1.2C79.1,163.6,79.1,163.8,79,164z M73.2,163.7c-0.4,0.2-0.8,0.3-1.2,0.5c-0.1-0.2-0.2-0.4-0.2-0.6
		c0,0,0.7-1.2,1-1.8c0.1,0.4,0.5,1.6,0.5,1.7C73.2,163.5,73.2,163.6,73.2,163.7z M67,161.4c0,0-1.2-8.1-1.2-9.8
		C66.8,154.8,67.1,161.4,67,161.4z M65.1,152.3c-0.3-1.4-0.6-2.8-1.1-4.2c-0.1-0.4-0.7-0.4-0.8,0.1c0,0.2,0,0.5-0.1,0.7
		c-0.3-2.3-0.7-4.6-1.2-6.8c-0.1-0.4-0.7-0.3-0.8,0.1c-0.3,2.2-0.2,4.3-0.1,6.5c0-0.2,0-0.4-0.1-0.6c-0.3-2.8-0.6-5.6-0.9-8.3
		c0-0.2-0.2-0.3-0.4-0.3c0-0.1,0-0.3-0.1-0.4c-0.1-0.7-0.1-1.9-0.4-3.1c0.5,1,1.1,2.1,1.6,3.2c0,0-0.1,0.1-0.1,0.1
		c0,0.1,0,0.2-0.1,0.2c-0.1,0.3,0.1,0.4,0.3,0.5c0.4,0.7,0.7,1.4,1.1,2c0.7,1.6,1.4,3.2,2.1,4.7c0.4,0.9,0.8,1.9,1.3,2.8
		c-0.2,0-0.3,0.1-0.4,0.2C65.1,150.6,65,151.4,65.1,152.3z M63.2,154.7c-0.3-0.7-0.6-1.3-0.9-2c-0.2-2.6-0.5-5.2-0.4-7.7
		c0.4,2,0.7,4,0.9,6C62.9,152.2,63,153.5,63.2,154.7z M58.3,134.7c0.6,1.3,0.7,4.1,0.8,4.9c0,0.3,0.1,0.5,0.1,0.8
		c-0.2,1,0,2.2,0.1,3.1c0.1,1.3,0.3,2.5,0.5,3.8c-0.2-0.5-0.5-1-0.7-1.5c0,0,0,0,0,0C59,142,58.3,138.4,58.3,134.7z M56.3,134.3
		c0-0.2,0-0.4,0-0.7c0.6,3.2,1,6.5,1.5,9.8c-0.3-0.5-0.6-1.1-0.8-1.6c0-0.1,0.1-0.2,0.1-0.2C56.8,139.2,56.6,136.7,56.3,134.3z
		 M57.5,133.7c0,1,0,1.9,0,2.9c-0.3-1.9-0.6-3.8-1.1-5.7c0.5,0.8,0.9,1.6,1.4,2.5C57.7,133.3,57.5,133.5,57.5,133.7z M54.8,130.1
		c0.3,1.4,0.5,2.8,0.7,4.3c0.1,1.9,0.2,3.8,0.5,5.7c-0.3-0.5-0.5-1-0.8-1.5c0-0.1,0.1-0.1,0.1-0.2C55.2,135.6,54.8,132.9,54.8,130.1
		z M54.4,127.3c-0.1,0.1-0.2,0.2-0.2,0.3c-0.1,0.7-0.1,1.5-0.2,2.2c0-0.4-0.1-0.9-0.1-1.3c0-0.7-0.1-1.4-0.1-2.2
		C54.1,126.7,54.3,127,54.4,127.3z M51.2,127.6c0.2,0.9,0.3,1.9,0.5,2.8c0,0,0,0,0,0c-0.1,0.1-0.1,0.1-0.2,0.2c0-0.1,0-0.1,0-0.2
		C51.4,129.4,51.3,128.5,51.2,127.6z M51,121.1c0.4,0.7,0.8,1.4,1.2,2.1c0,0,0,0,0,0c-0.2,1-0.3,2-0.4,2.9
		C51.5,124.5,51.2,122.8,51,121.1z M47.2,114.1c0.2,0.4,0.5,0.9,0.7,1.3c-0.2,2.9,0.6,5.8,0.8,8.7c0-0.1-0.1-0.2-0.1-0.2
		c-0.1-0.6-0.1-1.1-0.2-1.6c-0.2-1.5-0.5-3-0.7-4.6C47.5,116.6,47.4,115.3,47.2,114.1z M47.7,122.3c-0.2-0.4-0.5-0.8-0.7-1.3
		c-0.1-1.2-0.3-2.3-0.5-3.5c-0.3-1.9-0.5-3.8-0.4-5.7l0,0c0.6,2.2,0.7,4.6,1.1,6.8C47.3,119.9,47.5,121.1,47.7,122.3z M48.7,116.8
		c0.1,0.2,0.2,0.3,0.2,0.5c0.3,1.8,0.3,3.8,0.5,5.6c0.1,1.2,0.4,2.4,0.6,3.6c-0.1-0.2-0.2-0.5-0.4-0.7
		C49.6,122.7,48.7,119.8,48.7,116.8z M45,115.1c-0.1-0.5-0.2-1.1-0.3-1.6c-0.3-1.7-0.5-3.5-0.5-5.3c0,0,0,0.1,0,0.1
		c0.4,1.8,0.4,3.8,0.6,5.6C44.9,114.3,45,114.7,45,115.1z M41.1,102.2c0.4,2.2,0.7,4.4,0.9,6.7c0.1,0.9,0.1,1.8,0.2,2.7
		c-0.1-0.2-0.2-0.4-0.3-0.6c0-0.1,0.1-0.1,0-0.2C41.6,108.1,41,105.1,41.1,102.2z M40.9,109.5c-0.1-0.3-0.3-0.5-0.4-0.8
		c-0.1-3-1-6.1-1-9.2C40.1,102.9,40.5,106.2,40.9,109.5z M32,86.5c-0.1-0.7-0.3-1.3-0.5-2c0.2,0.3,0.4,0.6,0.5,0.9
		C32,85.5,32,85.5,32,85.6C32,85.9,32,86.2,32,86.5z M31.1,91.1c-0.3-2.9-0.5-5.8-0.9-8.7c0.3,0.5,0.7,1.1,1,1.6
		c-0.2-0.1-0.5,0-0.5,0.3C30.7,86.6,30.9,88.9,31.1,91.1z M28.3,78.2c0-0.1,0-0.1,0-0.2c0.1,0,0.3-0.2,0.2-0.3
		c-0.1-0.1-0.2-0.3-0.3-0.4c0-0.2-0.1-0.3-0.1-0.5c0.8,1.5,1.7,3.1,2.5,4.6c0.3,0.6,0.6,1.2,0.9,1.9c0,0.1,0.1,0.2,0.2,0.2
		c0.2,0.4,0.5,0.9,0.7,1.3c-1.3-2.1-2.7-4.2-4-6.3C28.4,78.3,28.3,78.2,28.3,78.2z M15.5,67c0.3-1.4,0.3-2.7,0.3-4.1
		c0,2.2,0,4.5,0.6,6.7c-0.4-0.8-0.9-1.5-1.3-2.3C15.2,67.4,15.5,67.2,15.5,67z M15,66.1c-0.7-1.5-0.1-4.6,0-5.9
		c0.1-1,0.1-1.9,0.1-2.9c0,1,0.1,1.9,0.1,2.8C15.1,62.2,15.2,64.2,15,66.1z M15.6,57.1c0.2,1.6,0.2,3.2,0.2,4.8c0-0.3,0-0.6,0-1
		C15.8,59.8,15.6,58.4,15.6,57.1z M20.5,50.7c-0.1-0.1-0.1-0.2-0.2-0.2c-0.2-0.2-0.7,0-0.5,0.4c0.4,0.7,0.8,1.3,1.2,2
		c0.2,0.5,0.4,0.9,0.6,1.3c0.5,1,1,1.9,1.6,2.8c-0.7-0.9-1.1-1.8-1.8-2.8c-0.8-1.5-1.3-3-2.3-4.5v0c0-0.1,0.5-0.1,0.8-0.3
		c0.3-0.2,0.5-0.3,0.8-0.5c0,0.2,0,0.5,0,0.7c-0.2-0.1-0.5,0.1-0.4,0.4C20.3,50.3,20.4,50.5,20.5,50.7z M24.5,50.8
		c0.2,0.3,0.4,0.6,0.6,0.9c-0.1,0-0.1,0.1-0.2,0.1C24.7,51.5,24.6,51.1,24.5,50.8z M53.1,114.5c1,2.1,2,4.2,3.1,6.2
		c0.2,0.4,0.7,0.2,0.8-0.2c0.6,1,1.1,2,1.7,3.1c1.6,3.7,3.8,7.1,5.8,10.6c-0.2-0.2-0.4-0.3-0.6-0.5c-0.3-0.6-0.7-1.2-1.1-1.9
		c-1-1.8-2.1-3.6-3.3-5.4c-0.6-1-1.2-1.9-1.8-2.9c-0.8-1.5-1.6-2.9-2.5-4.4c-0.2-0.5-0.5-0.9-0.8-1.3c-0.6-1.1-1.1-2.2-1.7-3.3
		c-0.1-0.2-0.1-0.5-0.2-0.7C52.7,114,52.9,114.2,53.1,114.5z M49,102.3C49,102.3,49,102.3,49,102.3c0.5,1,1,2.1,1.5,3.1
		c0.8,1.7,1.6,3.3,2.5,5c0,0-0.1,0-0.1,0C51.5,107.8,50.1,105.1,49,102.3z M53.2,112.7c0.7,1.2,1.4,2.4,2.1,3.6
		c0.2,0.3,0.3,0.6,0.5,0.9c-0.4-0.6-0.8-1.2-1.1-1.8c-0.4-0.8-0.8-1.6-1.3-2.4C53.3,113,53.3,112.8,53.2,112.7z M72.6,137.1
		c0.3,0.4,0.6,0.8,0.9,1.2c0.7,1.4,1.6,2.8,2.6,4.1c0.1,0.2,0.3,0.4,0.4,0.6c1.1,1.9,2.1,4,3,6c-0.2-0.2-0.4-0.3-0.5-0.5
		c-1.1-1.5-1.9-3.3-2.7-4.8c-1.2-2.1-2.5-4.2-3.6-6.4C72.6,137.3,72.7,137.2,72.6,137.1z M80.2,155.9c-0.1-0.1-0.1-0.2-0.2-0.4
		c0.2,0.2,0.3,0.4,0.5,0.5c0.4,0.3,0.7-0.2,0.6-0.5c-0.2-0.6-0.5-1.2-0.8-1.8c0.6,0.6,1,1.6,1.6,2.3c0,0,0,0,0,0
		c-0.6,0.2-1.1,0.5-1.7,0.8c0-0.1-0.1-0.2-0.1-0.3C80.2,156.3,80.3,156.1,80.2,155.9z M139.8,140.6c-0.2,0.4-0.4,0.8-0.7,1.1
		c-0.9,0.2-1.8,0.5-2.7,0.7c0.2-0.4,0.4-0.7,0.7-1.1C138,141.1,138.9,140.8,139.8,140.6z M154.5,136.6c-0.3,0.4-0.7,0.9-1,1.3
		c-1.7,0.4-3.4,0.8-5.1,1.3c0.2-0.4,0.4-0.8,0.7-1.2C150.9,137.5,152.7,137.1,154.5,136.6z M169.8,129.7c0.3-0.1,0.6-0.2,0.8-0.2
		c-0.7,1-1.4,2-2.1,3c-1.1,0.3-2.2,0.7-3.3,1c0.4-0.5,0.8-1.1,1.2-1.6c0.2-0.2-0.2-0.5-0.4-0.3c-0.5,0.7-1,1.4-1.5,2.1
		c-0.8,0.2-1.5,0.4-2.3,0.6c0.6-0.9,1.2-1.8,1.8-2.8c0.2-0.1,0.5-0.2,0.7-0.2C166.4,130.8,168.1,130.2,169.8,129.7z M175.4,129.5
		c-0.1,0.3-0.3,0.6-0.4,0.8c-0.6,0.2-1.2,0.4-1.7,0.6c0.3-0.4,0.6-0.8,0.9-1.2c0.2-0.2-0.2-0.5-0.4-0.2c-0.4,0.5-0.8,1.1-1.2,1.7
		c-1.1,0.4-2.2,0.7-3.3,1.1c0.7-1,1.4-2,2-3c1.6-0.5,3.2-0.9,4.9-1.4C175.8,128.6,175.5,129.3,175.4,129.5z M175.5,130.5
		c0.4-0.2,0.9-0.3,1.3-0.5c-0.1,0.2-0.2,0.5-0.4,0.7c-0.1,0-0.1,0-0.2,0.1c-0.3,0.1-0.7,0.2-1,0.3
		C175.4,130.8,175.4,130.6,175.5,130.5z M159.4,137.9c0.3-0.4,0.6-0.7,0.9-1.1c0.8-0.2,1.6-0.5,2.4-0.7c-0.3,0.3-0.5,0.7-0.8,1
		C161,137.4,160.2,137.7,159.4,137.9z M156.5,140.8c-2,0.6-3.9,1.2-5.9,1.7c0,0,0.1,0,0.1-0.1c0.5-0.6,1-1.3,1.4-1.9
		c0.8-0.2,1.6-0.5,2.3-0.7c0,0.2,0.2,0.3,0.3,0.1c0.1-0.1,0.1-0.2,0.2-0.3c1-0.3,2.1-0.6,3.1-1c-0.5,0.6-1,1.2-1.6,1.8
		C156.4,140.7,156.4,140.7,156.5,140.8z M132.5,145.9c0.2-0.4,0.4-0.7,0.6-1.1c0.7-0.2,1.4-0.4,2-0.6c-0.2,0.4-0.4,0.8-0.6,1.2
		C133.9,145.5,133.2,145.7,132.5,145.9z M95.1,158.9c-0.1,0-0.1,0-0.2,0.1c0.2-0.7,0.3-1.3,0.5-1.9c1.1-0.4,2.1-0.7,3.2-1.1
		c-0.3,0.7-0.5,1.4-0.7,2.1C97,158.3,95.1,158.7,95.1,158.9z M83.3,161.2C83.3,161.2,83.3,161.3,83.3,161.2
		C83.3,161.3,83.3,161.3,83.3,161.2c0,0.1,0,0.1,0,0.2c0.1,0.4,0.1,0.8,0.2,1.1c-0.4,0.1-0.7,0.2-1.1,0.4c-0.2-0.4-0.3-0.9-0.5-1.3
		C82.4,161.5,82.8,161.4,83.3,161.2z M81.9,161.4c0-0.1-0.1-0.3-0.1-0.4c0.5-0.1,0.9-0.3,1.4-0.4c0,0.2,0.1,0.3,0.1,0.5
		C82.8,161.1,82.3,161.3,81.9,161.4z M104.9,153.6c-0.8,0.3-1.7,0.6-2.5,0.8l0.3-1c1-0.3,1.9-0.6,2.9-0.9c-0.2,0.3-0.3,0.7-0.5,1
		C105,153.5,104.9,153.6,104.9,153.6z M101.9,154.5c-0.5,0.2-1,0.3-1.6,0.5c-0.4,0.1-0.8,0.2-1.2,0.3c0.1-0.3,0.3-0.7,0.4-1
		c0.9-0.3,1.8-0.6,2.7-0.8L101.9,154.5z M98.8,155.5c-1.1,0.3-2.1,0.6-3.2,0.9c0.1-0.3,0.2-0.6,0.4-1c1.1-0.3,2.2-0.7,3.3-1
		C99.1,154.8,98.9,155.2,98.8,155.5z M95.3,156.5c-0.5,0.2-1.1,0.3-1.6,0.5c0.1-0.3,0.2-0.6,0.4-0.9c0,0,0.1,0,0.1,0
		c0.5-0.2,1-0.3,1.5-0.5C95.6,155.9,95.5,156.2,95.3,156.5z M92.3,157.4c-0.5,0.2-1.1,0.3-1.6,0.5c0,0,0-0.1,0-0.1
		c0.1-0.2,0.2-0.5,0.3-0.7c0.9-0.3,1.8-0.6,2.6-0.9c-0.1,0.3-0.2,0.6-0.4,0.9C92.9,157.3,92.6,157.3,92.3,157.4z M84.2,159.3
		c0.5-0.2,0.9-0.3,1.4-0.4c-0.1,0.2-0.2,0.5-0.3,0.7c-0.4,0.1-0.8,0.3-1.3,0.4C84.1,159.8,84.1,159.6,84.2,159.3z M83.7,160.1
		c0,0-0.1,0-0.1,0c0-0.2-0.1-0.4-0.1-0.6c0.1,0,0.3-0.1,0.4-0.1C83.8,159.7,83.8,159.9,83.7,160.1z M86.1,158.7
		c0.7-0.2,1.3-0.4,2-0.6c-0.1,0.2-0.2,0.5-0.2,0.7c-0.7,0.2-1.3,0.4-2,0.6C85.9,159.2,86,159,86.1,158.7z M90.7,157.2
		c-0.1,0.3-0.2,0.5-0.3,0.8c-0.8,0.2-1.6,0.5-2.3,0.7c0.1-0.2,0.2-0.5,0.2-0.7C89.1,157.7,89.9,157.5,90.7,157.2z M87.7,159.1
		c0,0.1-0.1,0.2-0.1,0.3c-0.7,0.3-1.4,0.5-2.1,0.8c0.1-0.1,0.1-0.3,0.2-0.4C86.4,159.5,87,159.3,87.7,159.1z M88,159
		c0.8-0.2,1.6-0.5,2.3-0.7c0,0,0,0.1,0,0.1c-0.8,0.3-1.6,0.6-2.4,0.9C88,159.2,88,159.1,88,159z M90.6,158.2c0.1,0,0.1,0,0.2-0.1
		c0.6-0.2,1.1-0.3,1.7-0.5c-0.5,0.2-1,0.3-1.4,0.5C90.9,158.2,90.7,158.3,90.6,158.2C90.6,158.3,90.6,158.3,90.6,158.2z M94.2,155.8
		C94.2,155.7,94.2,155.7,94.2,155.8c0.4-0.2,0.8-0.3,1.2-0.4C95,155.5,94.6,155.6,94.2,155.8z M93.7,155.9c-0.9,0.3-1.8,0.6-2.7,0.9
		c0-0.1,0.1-0.2,0.1-0.3c0.9-0.2,1.7-0.4,2.6-0.7C93.8,155.8,93.8,155.9,93.7,155.9z M90.8,156.9c-0.8,0.3-4,1.3-4.6,1.5
		c0.1-0.2,0.2-0.5,0.3-0.7c1.5-0.4,3-0.8,4.5-1.2C90.9,156.6,90.9,156.8,90.8,156.9z M85.7,158.6c-0.5,0.2-0.9,0.3-1.4,0.5
		c0-0.2,0.1-0.4,0.1-0.6c0-0.1,0-0.1-0.1-0.1c0.5-0.2,1-0.3,1.5-0.5c0,0,0.1,0,0.1,0C85.9,158.1,85.8,158.3,85.7,158.6z M84.1,158.4
		c0,0.2-0.1,0.5-0.1,0.7c-0.2,0.1-0.3,0.1-0.5,0.2c0-0.2-0.1-0.5-0.1-0.7C83.6,158.5,83.8,158.5,84.1,158.4
		C84.1,158.4,84.1,158.4,84.1,158.4z M83.6,160.4C83.6,160.4,83.6,160.4,83.6,160.4C83.6,160.4,83.6,160.4,83.6,160.4
		C83.6,160.4,83.6,160.4,83.6,160.4z M83.9,160.3c0.4-0.1,0.8-0.3,1.2-0.4c-0.1,0.1-0.1,0.3-0.2,0.4c0,0,0,0.1,0,0.1
		c-0.4,0.1-0.8,0.3-1.2,0.4C83.8,160.6,83.9,160.5,83.9,160.3z M84.9,160.7c-0.2,0.5-0.4,1.1-0.6,1.6c-0.1,0-0.2,0.1-0.4,0.1
		c-0.1-0.4-0.1-0.9-0.2-1.3C84.1,161,84.5,160.8,84.9,160.7z M85.4,160.5c0.7-0.3,1.4-0.5,2.1-0.8c-0.2,0.6-0.4,1.2-0.6,1.7
		c-0.7,0.2-1.4,0.4-2.1,0.7C85,161.6,85.2,161,85.4,160.5z M87.8,159.6c0.8-0.3,2.5-0.9,2.7-1c0.2-0.1,0.4-0.1,0.6-0.2
		c0.6-0.2,1.3-0.4,1.9-0.6c-0.3,0.7-0.6,1.3-0.8,2c-1.6,0.5-3.2,1-4.9,1.5C87.5,160.8,87.6,160.2,87.8,159.6z M93.5,157.6
		c0.6-0.2,1.1-0.4,1.7-0.5c-0.2,0.6-0.4,1.3-0.6,1.9c-0.1,0-0.3,0.1-0.4,0.1c-0.5,0.1-1,0.3-1.4,0.5C92.9,159,93.2,158.3,93.5,157.6
		z M99,155.8c0.5-0.2,1.1-0.4,1.6-0.5c0.4-0.1,0.8-0.2,1.1-0.3c0,0,2.1-0.6,3-0.9c-0.3,0.7-0.7,1.4-1,2.2c-1.8,0.5-3.7,1.1-5.5,1.6
		C98.6,157.2,98.8,156.5,99,155.8z M105.2,154c0.4-0.1,0.7-0.2,1.1-0.3c-0.3,0.7-0.6,1.4-0.9,2.1c-0.4,0.1-0.8,0.2-1.1,0.3
		C104.6,155.4,104.9,154.7,105.2,154z M105.5,153.4c0.1-0.3,0.3-0.7,0.4-1c0.4-0.1,0.8-0.2,1.2-0.4c-0.2,0.3-0.3,0.6-0.5,1
		C106.3,153.1,105.9,153.2,105.5,153.4z M107.8,151.8c1-0.3,2-0.6,3-0.9c-0.1,0.3-0.3,0.6-0.4,0.9c-1,0.3-2,0.7-3,1
		C107.5,152.5,107.6,152.1,107.8,151.8z M167.7,133.6c-0.1,0-0.1,0.1-0.2,0.1c-1,0.3-2.1,0.6-3.1,0.9c0.1-0.2,0.3-0.4,0.4-0.6
		c1.1-0.3,2.2-0.7,3.3-1C168,133.2,167.8,133.4,167.7,133.6z M168.9,132.7c1.1-0.4,2.2-0.7,3.3-1.1c-0.1,0.2-0.3,0.4-0.4,0.5
		c-1,0.3-2.1,0.7-3.1,1c-0.1,0-0.1,0.1-0.2,0.1C168.6,133.1,168.8,132.9,168.9,132.7z M163.6,134.8c-0.8,0.2-1.6,0.5-2.4,0.8
		c0.2-0.2,0.4-0.5,0.5-0.7c0.8-0.2,1.5-0.4,2.3-0.6C163.9,134.4,163.8,134.6,163.6,134.8z M160.5,135.8c0,0-0.1,0-0.1,0
		c-1.3,0.4-2.5,0.8-3.8,1.2c0.2-0.4,0.5-0.8,0.8-1.1c0.8-0.2,1.7-0.4,2.5-0.6c0.4-0.1,0.8-0.2,1.2-0.3
		C160.9,135.3,160.7,135.6,160.5,135.8z M162.9,135.6c-0.3,0.4-6.2,2-6.7,2.1c0,0,0.1-0.3,0.2-0.4
		C156.8,137.2,162.2,135.6,162.9,135.6z M155.6,137.9c-0.1,0-0.2,0.1-0.4,0.1c-0.5,0.1-1,0.3-1.5,0.4c0,0,0,0,0.1-0.1
		C154.4,138.2,155,138,155.6,137.9c0-0.1,0-0.1,0.1-0.1C155.7,137.8,155.7,137.8,155.6,137.9z M152.5,140c0.3-0.4,0.6-0.8,0.9-1.2
		c0.6-0.2,1.3-0.4,1.9-0.6c-0.2,0.4-0.5,0.7-0.7,1.1C154,139.6,153.3,139.8,152.5,140z M152.7,139.1c-0.3,0.4-0.6,0.8-0.9,1.2
		c-1.6,0.5-3.3,1-4.9,1.5c0.3-0.4,0.6-0.8,0.9-1.3C149.4,140,151,139.5,152.7,139.1z M145.5,141.1c0.6-0.2,1.1-0.3,1.7-0.5
		c-0.3,0.4-0.6,0.9-0.9,1.3c-0.5,0.1-1,0.3-1.5,0.4C145.1,141.9,145.3,141.5,145.5,141.1z M144.1,142.6c-0.7,0.2-1.4,0.4-2.1,0.6
		c0.4-0.5,0.7-0.9,1.1-1.4c0.6-0.2,1.2-0.3,1.7-0.5C144.6,141.7,144.3,142.1,144.1,142.6z M147.9,140.1c0,0,0.2-0.4,0.3-0.4
		c0.4-0.1,4.6-1.4,5.3-1.2C153.2,138.9,148.3,140,147.9,140.1z M147.6,140.1c-0.6,0.2-1.3,0.4-1.9,0.6c0-0.1,0.2-0.4,0.2-0.5
		c0.6-0.2,1.2-0.3,1.7-0.5C147.7,139.8,147.6,140.1,147.6,140.1z M145.1,140.7c-0.6,0.2-1.1,0.3-1.7,0.5c0.1-0.1,0.2-0.2,0.3-0.4
		c0.5-0.1,1-0.3,1.5-0.4C145.2,140.5,145.2,140.6,145.1,140.7z M142.7,141.4c-0.8,0.2-1.5,0.5-2.3,0.7c-0.4,0.1-0.8,0.2-1.2,0.3
		c0.1-0.2,0.2-0.3,0.3-0.5c1.2-0.3,2.3-0.6,3.5-0.9C142.9,141.2,142.8,141.3,142.7,141.4z M138.6,142.7c-0.9,0.2-1.8,0.5-2.7,0.7
		c0.1-0.2,0.2-0.3,0.3-0.5c0.9-0.2,1.8-0.5,2.7-0.7C138.8,142.3,138.7,142.5,138.6,142.7z M135.5,143.5c-0.7,0.2-1.3,0.4-2,0.6
		c0.1-0.1,0.1-0.2,0.2-0.3c0,0,0-0.1,0-0.1c0.7-0.2,1.4-0.4,2.1-0.6C135.7,143.2,135.6,143.3,135.5,143.5z M133.2,144.2
		c-0.9,0.2-4.9,1.4-5.8,1.6c0.1-0.2,0.2-0.3,0.3-0.5c1.9-0.6,3.9-1.1,5.9-1.6C133.4,143.8,133.3,144,133.2,144.2z M117.3,149
		c1-0.3,2-0.6,3-0.9c-0.1,0.2-0.2,0.3-0.3,0.5c-1,0.3-2,0.7-3,1C117,149.4,117.1,149.2,117.3,149z M116.4,149.8
		c-1.1,0.4-2.2,0.7-3.2,1.1c0.1-0.3,0.2-0.5,0.4-0.8c1.1-0.3,2.2-0.6,3.2-1C116.7,149.4,116.6,149.6,116.4,149.8z M120.8,148
		c0.6-0.2,1.2-0.3,1.8-0.5c-0.1,0.1-0.2,0.3-0.2,0.4c-0.6,0.2-1.2,0.4-1.8,0.6C120.6,148.3,120.7,148.1,120.8,148z M123.1,147.3
		c0.4-0.1,0.8-0.2,1.2-0.4c0.7-0.2,1.5-0.4,2.2-0.6c0,0.1-0.1,0.2-0.1,0.3c-1.2,0.4-2.3,0.7-3.5,1.1
		C122.9,147.6,123,147.5,123.1,147.3z M127.1,146.2c0.9-0.3,1.8-0.5,2.7-0.7c0,0,0,0.1-0.1,0.1c-0.9,0.3-1.8,0.6-2.8,0.9
		C127,146.3,127,146.3,127.1,146.2z M130.3,145.3c0.4-0.1,6.1-1.8,6.6-1.9C136.4,143.7,130.6,145.2,130.3,145.3
		C130.2,145.4,130.2,145.3,130.3,145.3z M126.8,145.9c-0.3,0.1-0.6,0.2-1,0.3c-0.8,0.2-1.6,0.5-2.5,0.7c0.1-0.1,0.1-0.2,0.2-0.3
		c0,0,0-0.1,0-0.1c1.2-0.4,2.3-0.7,3.5-1c0,0,0,0,0,0C126.9,145.6,126.8,145.8,126.8,145.9z M122.8,147.1c-0.6,0.2-1.2,0.3-1.8,0.5
		c0,0,0,0,0,0c0-0.1,0.1-0.2,0.2-0.3c0.6-0.2,1.2-0.4,1.9-0.6C122.9,146.8,122.9,146.9,122.8,147.1z M120.4,147.7
		c-1,0.3-2,0.6-3,0.9c0-0.1,0.1-0.1,0.1-0.2c1-0.3,2-0.7,3-1C120.6,147.5,120.5,147.6,120.4,147.7z M117,148.7
		c-1.1,0.3-2.2,0.6-3.3,1c0,0,0,0,0,0c1.1-0.4,2.2-0.7,3.4-1.1C117.1,148.6,117,148.7,117,148.7z M113.3,149.8c-0.1,0-0.1,0-0.2,0.1
		C113.1,149.9,113.2,149.9,113.3,149.8C113.3,149.8,113.3,149.8,113.3,149.8z M113.1,150.2c-0.1,0.3-0.3,0.5-0.4,0.8
		c-0.6,0.2-1.3,0.4-1.9,0.6c0.1-0.3,0.3-0.6,0.4-0.9C111.9,150.6,112.5,150.4,113.1,150.2z M110.1,152.2
		C110.1,152.2,110.1,152.3,110.1,152.2c-0.6,0.2-1.1,0.4-1.6,0.5C109.1,152.6,109.6,152.4,110.1,152.2z M110.6,152.1
		c0.6-0.2,1.3-0.4,1.9-0.6c0,0.1-0.1,0.1-0.1,0.2c-0.6,0.2-1.2,0.3-1.9,0.5C110.6,152.1,110.6,152.1,110.6,152.1z M113,151.3
		c1.1-0.3,2.1-0.7,3.2-1c-0.1,0.1-0.1,0.2-0.2,0.4c-1,0.3-2.1,0.6-3.1,0.9C113,151.4,113,151.3,113,151.3z M116.7,150.1
		c1-0.3,2-0.7,3-1c-0.1,0.2-0.2,0.4-0.3,0.5c-0.5,0.1-1,0.3-1.5,0.4c-0.5,0.1-1,0.3-1.5,0.4C116.6,150.3,116.6,150.2,116.7,150.1z
		 M120.3,148.9c0.6-0.2,1.2-0.4,1.7-0.6c-0.1,0.2-0.2,0.4-0.4,0.7c-0.6,0.2-1.1,0.3-1.7,0.5C120.1,149.3,120.2,149.1,120.3,148.9z
		 M122.6,148.2c1.2-0.4,2.3-0.7,3.5-1.1c-0.2,0.3-0.3,0.5-0.5,0.8c-1.1,0.3-2.3,0.6-3.4,1C122.4,148.6,122.5,148.4,122.6,148.2z
		 M126.7,146.9c0.9-0.3,1.8-0.6,2.7-0.9c-0.2,0.3-0.4,0.6-0.6,1c-0.9,0.2-1.8,0.5-2.6,0.7C126.4,147.4,126.6,147.1,126.7,146.9z
		 M130,145.8c0.9-0.3,1.8-0.6,2.7-0.9c0,0,0.1,0,0.1,0c-0.2,0.4-0.4,0.7-0.6,1.1c-0.9,0.3-1.9,0.5-2.8,0.8
		C129.6,146.5,129.8,146.2,130,145.8z M135.5,144.1c0.9-0.3,1.8-0.6,2.7-0.8c-0.3,0.4-0.5,0.8-0.8,1.3c-0.8,0.2-1.7,0.5-2.5,0.7
		C135.1,144.8,135.3,144.5,135.5,144.1z M138.9,143c1-0.3,2-0.6,3-0.9c0.1,0,0.3-0.1,0.4-0.1c-0.4,0.5-0.7,1-1.1,1.4
		c-1,0.3-2,0.6-3,0.9C138.4,143.9,138.7,143.4,138.9,143z M140.7,144c-0.1,0.1-0.2,0.2-0.3,0.3c-0.2,0.2,0.1,0.6,0.3,0.3
		c0.3-0.3,0.5-0.6,0.8-0.9c0.7-0.2,1.5-0.4,2.2-0.6c-0.4,0.6-0.8,1.1-1.2,1.6c-0.1,0.1-0.1,0.2,0,0.2c-1.9,0.6-3.8,1.1-5.7,1.7
		c0.4-0.6,0.7-1.2,1.1-1.8C138.8,144.5,139.8,144.2,140.7,144z M144.5,142.9c0.5-0.1,0.9-0.3,1.4-0.4c-0.2,0.2-0.3,0.4-0.5,0.7
		c-0.1,0.2,0.2,0.4,0.3,0.2c0.3-0.3,0.5-0.7,0.8-1c1.6-0.5,3.3-1,4.9-1.5c-0.3,0.5-0.7,1-1,1.4c-0.1,0.2,0,0.3,0.2,0.3
		c-2.5,0.7-5,1.5-7.5,2.2C143.6,144.2,144.1,143.6,144.5,142.9z M155.3,139.2c0.2-0.4,0.5-0.7,0.7-1.1c1.2-0.3,2.3-0.7,3.5-1
		c-0.3,0.4-0.6,0.7-0.9,1.1C157.5,138.5,156.4,138.9,155.3,139.2z M163.4,135.9c1.1-0.3,2.2-0.7,3.3-1c-0.2,0.3-0.5,0.7-0.7,1
		c-1.1,0.4-2.2,0.7-3.3,1.1C162.8,136.6,163.1,136.3,163.4,135.9z M163.9,135.3c0.3-0.1,0.7-0.3,1-0.4c0.8-0.2,1.5-0.5,2.3-0.7
		c0,0.1-0.1,0.1-0.1,0.2C166,134.7,164.9,135,163.9,135.3z M168,133.9c1.1-0.3,2.1-0.6,3.2-1c0,0,0,0.1-0.1,0.1
		c-1.1,0.4-2.2,0.7-3.3,1.1C167.9,134.1,168,134,168,133.9z M171.9,132.8c0.5-0.1,0.9-0.3,1.4-0.4c-0.4,0.1-0.8,0.3-1.2,0.4
		C172,132.8,171.9,132.8,171.9,132.8C171.9,132.8,171.9,132.8,171.9,132.8z M172.5,131.9c0.1-0.2,0.3-0.4,0.4-0.6
		c0.6-0.2,1.3-0.4,1.9-0.7c-0.1,0.2-0.2,0.4-0.3,0.6C173.9,131.5,173.2,131.7,172.5,131.9z M163.4,131.7c-0.6,0.9-1.2,1.8-1.9,2.7
		c-0.6,0.1-1.1,0.3-1.7,0.4c-0.7,0.2-3.7,0.9-4.2,1c0.5-0.7,1-2,1.8-2.2C158.8,133.3,162,132.2,163.4,131.7z M156.8,136.1
		c-0.3,0.4-0.5,0.8-0.8,1.2c-0.2,0.1-0.5,0.2-0.7,0.2l-0.1,0c-0.3,0.1-0.6,0.2-0.9,0.2c0.3-0.4,0.6-0.9,1-1.3
		C155.8,136.3,156.3,136.2,156.8,136.1z M148,139.3c-0.6,0.2-1.2,0.3-1.8,0.5c0.2-0.4,0.4-0.8,0.6-1.2c0.6-0.2,1.2-0.3,1.8-0.5
		C148.5,138.5,148.2,138.9,148,139.3z M145.5,140c-0.5,0.1-1,0.3-1.5,0.4c0.2-0.3,0.3-0.5,0.5-0.8c0.1-0.1,0-0.3-0.1-0.3
		c0.6-0.2,1.2-0.3,1.8-0.5C145.9,139.2,145.7,139.6,145.5,140z M144.1,139.4c-0.3,0.4-0.5,0.8-0.8,1.2c-1.2,0.3-2.4,0.6-3.6,1
		c0.2-0.4,0.4-0.7,0.6-1.1C141.6,140.1,142.9,139.7,144.1,139.4C144.1,139.4,144.1,139.4,144.1,139.4z M136.1,142.6
		c-2.7,0.8-5.5,1.5-8.2,2.3c0.2-0.3,0.4-0.7,0.6-1c0.3-0.1,0.5-0.2,0.8-0.2c2.5-0.7,5-1.4,7.5-2.2
		C136.5,141.8,136.3,142.2,136.1,142.6z M127.3,145c-0.1,0-0.2,0.1-0.4,0.1c-1.8,0.5-3.7,1.1-5.5,1.7c0.2-0.3,0.3-0.7,0.5-1
		c2-0.6,4-1.2,6-1.8C127.7,144.3,127.5,144.7,127.3,145z M120.9,146.9c-1,0.3-5.8,1.9-6.9,2.3c0.2-0.4,0.3-0.7,0.4-1.1
		c2.3-0.7,4.7-1.5,7-2.2C121.3,146.3,121.1,146.6,120.9,146.9z M113.5,149.3c-0.6,0.2-1.2,0.4-1.9,0.6c0.2-0.4,0.4-0.8,0.7-1.2
		c0.6-0.2,1.1-0.3,1.7-0.5C113.8,148.6,113.7,149,113.5,149.3z M111.2,150.1c-1,0.3-2.1,0.7-3.1,1c0.2-0.4,0.4-0.9,0.6-1.3
		c1-0.3,2.1-0.6,3.1-1C111.6,149.3,111.4,149.7,111.2,150.1z M107.5,151.4c-0.4,0.1-0.8,0.3-1.3,0.4c0.2-0.5,0.4-0.9,0.6-1.4
		c0.4-0.1,0.9-0.3,1.3-0.4C108,150.5,107.7,150.9,107.5,151.4z M105.9,151.9c-1,0.3-2,0.7-3,1l0.5-1.4c0,0,0,0,0,0
		c1.1-0.3,2.1-0.6,3.2-0.9C106.3,151,106.1,151.5,105.9,151.9z M102.4,153c-0.9,0.3-1.7,0.6-2.6,0.8c0,0,0,0,0,0
		c0.2-0.5,0.4-1,0.6-1.5c0,0,0,0,0,0c0.8-0.2,1.7-0.5,2.5-0.7L102.4,153z M99.4,154c-1.1,0.3-4.5,1.3-5.1,1.4c0.2-0.5,0.4-1,0.6-1.5
		c1.2-0.4,2.4-0.7,3.6-1.1c0.5-0.1,1-0.3,1.5-0.4C99.9,152.9,99.6,153.4,99.4,154z M93.9,155.5c-0.9,0.2-5.9,1.5-7.4,1.9
		c0.1-0.3,0.2-0.7,0.3-1c2.6-0.8,5.1-1.6,7.6-2.4C94.3,154.5,94.1,155,93.9,155.5z M86.1,157.6c-0.9,0.3-1.9,0.6-2.8,0.8
		c-0.1-0.3-0.1-0.6-0.2-0.9c0,0,0,0,0,0c1.1-0.3,2.2-0.6,3.3-0.9C86.3,156.9,86.2,157.2,86.1,157.6z M83.1,160.3
		c-0.5,0.2-1,0.3-1.4,0.5c-0.1-0.2-0.1-0.4-0.2-0.5c0.5-0.2,1-0.3,1.5-0.5C83,159.9,83.1,160.1,83.1,160.3z M81.9,159.9
		c-0.1,0.1-0.3,0.1-0.4,0.2c0-0.1-0.1-0.2-0.1-0.3c0.1-0.1,0.1-0.3,0.2-0.4c0-0.1,0-0.1,0-0.1c0.5-0.1,0.9-0.3,1.4-0.4
		c0,0.2,0.1,0.5,0.1,0.7C82.6,159.6,82.2,159.7,81.9,159.9z M77,162.3c-0.1,0-0.1,0-0.2,0.1c0-0.1,0.1-0.1,0.1-0.2
		C77,162.2,77,162.2,77,162.3z M77,161.3c-0.1-0.3-0.2-0.5-0.3-0.8c0.3-0.1,0.6-0.2,1-0.3C77.4,160.7,77.2,161,77,161.3
		C77,161.4,77,161.4,77,161.3z M74.6,162c0,0.1,0,0.2,0.1,0.3c-0.2,0.1-0.3,0.1-0.5,0.2c0.1-0.3,0.3-0.5,0.4-0.8
		C74.6,161.9,74.6,161.9,74.6,162z M71.6,163.2c-0.1-0.4-0.2-0.7-0.3-1.1c0.4-0.3,0.9-0.6,1.4-0.8c0,0,0,0,0,0
		C72.3,162,72,162.6,71.6,163.2z M69.4,156.5c0,0,0.1,0.1,0.1,0.1c0.5,0.6,0.3,0.6,0.2,1.4C69.6,157.6,69.5,157.1,69.4,156.5z
		 M71.7,157.3c-0.8-0.9-1.2-2.4-1.7-3.8c0.7,0.7,1.8,3.3,1.8,3.4C71.8,157,71.8,157.2,71.7,157.3z M76.6,156.2
		C76.7,156.2,76.7,156.2,76.6,156.2c0.3,0.4,0.6,0.9,0.9,1.3c-0.1,0-0.1,0.1,0,0.2c0.1,0.1,0.1,0.2,0.1,0.3
		c-0.6,0.2-1.2,0.4-1.9,0.7c-0.1-0.3-0.3-0.5-0.4-0.8c0,0,0,0,0,0c0.2,0.1,0.3,0.1,0.5,0C76.6,157.6,76.8,156.9,76.6,156.2z
		 M79.1,152.9c0.1,0.2,0.2,0.4,0.2,0.6c-0.2-0.3-0.5-0.6-0.8-0.8c0,0,0,0,0,0c-0.7-1.6-1.5-3.1-2.3-4.7c1,1.5,2,2.9,3,4.4
		C79.1,152.4,79,152.6,79.1,152.9z M81,160.4c0.1,0.2,0.1,0.4,0.2,0.5c-0.2,0.1-0.3,0.1-0.5,0.2C80.8,160.8,80.9,160.6,81,160.4
		C81,160.4,81,160.4,81,160.4z M81.1,159.1c-0.1-0.3-0.2-0.7-0.4-1c0.6-0.2,1.2-0.3,1.9-0.5c0.1,0.3,0.1,0.6,0.2,1
		C82.2,158.7,81.7,158.9,81.1,159.1z M78.3,160.2c0.1,0.3,0.1,0.6,0.2,0.9c-0.3,0.1-0.7,0.2-1,0.3c0.2-0.4,0.5-0.8,0.7-1.2
		C78.2,160.2,78.3,160.2,78.3,160.2z M72.6,160c0.2,0,0.3-0.1,0.5-0.1c-0.2,0.1-0.3,0.2-0.5,0.3C72.7,160.2,72.6,160.1,72.6,160z
		 M75,157.9c0,0,0,0.1,0,0.1c0,0.1,0.2,0.1,0.2,0c0,0.2,0.1,0.5,0.2,0.8c-0.4,0.2-0.8,0.3-1.2,0.5c0,0,0,0,0,0c0,0,0-0.1,0-0.1
		C74.5,158.8,74.8,158.4,75,157.9z M75,160.2c-0.1,0.2-0.2,0.4-0.3,0.6c0-0.1,0-0.3-0.1-0.4C74.7,160.4,74.9,160.3,75,160.2z
		 M78.3,158.7C78.3,158.7,78.3,158.7,78.3,158.7c0.1,0.1,0.1,0.1,0.2,0.2c0,0,0.1,0.1,0.1,0.1c-0.1,0.1-0.1,0.2-0.2,0.2
		C78.4,159,78.3,158.8,78.3,158.7z M79,159C79,158.9,79,158.9,79,159c0.1-0.1,0.2-0.3,0.2-0.5c0,0,0,0,0,0c0.4-0.1,0.8-0.2,1.2-0.3
		c0.1,0.3,0.2,0.7,0.3,1.1c-0.7,0.2-1.4,0.4-2.1,0.6c0-0.1,0-0.1,0-0.2C78.7,159.4,78.8,159.2,79,159z M75.5,156.8
		c-0.1-0.7-0.4-1.4-0.7-2c0.2,0.2,0.4,0.4,0.7,0.6c0.1,0.2,0.1,0.3,0.2,0.5C75.9,156.2,75.8,156.5,75.5,156.8z M74.9,153.5
		c-0.9-1-1.8-2-2.7-3.1c-0.2-0.4-0.4-0.7-0.6-1.1c0.1,0,0.2-0.1,0.2-0.3c0-0.1,0-0.2,0-0.3c0.7,1.1,1.7,2.8,3,3.4
		c0.2,0.3,0.4,0.7,0.6,1.1C75.2,153.2,75,153.3,74.9,153.5z M71.6,152.5c0.5,0.7,0.9,1.3,1.4,2c-0.2-0.2-0.4-0.4-0.6-0.5
		c-0.3-0.5-0.7-0.9-1-1.4C71.5,152.6,71.6,152.6,71.6,152.5z M72.9,158.5c0.1,0.1,0.2,1,0.3,1.1c0.3,0.3,0.7,0.1,0.5-0.3
		c0-0.1,0.6-0.2,0.6-0.3c0.1,0,0.2-0.5,0.3-0.5c0.3,0.4,0-1.2,0.2-0.8c0,0,0.1,0.1,0.1,0.1c-0.2,0.5-0.5,0.9-0.8,1.3
		c-0.2-0.3-0.3-0.5-0.6-0.7c-0.1-0.1-0.2,0.1-0.1,0.1c0.3,0.2,0.4,0.5,0.6,0.8c0,0,0,0.1-0.1,0.1c-0.5,0.1-1.4,0.1-1.4,0
		c-0.1-0.4,0-1-0.1-1.4C72.6,157.5,72.8,158.9,72.9,158.5z M72.5,160.4c-0.5,0.3-0.9,0.7-1.3,1c-0.1-0.3,0.8-1.2,1.3-1.3
		C72.4,160.2,72.4,160.3,72.5,160.4z M70.2,162c0-0.3,0-0.7,0-1c0.1-0.1,0.5,0.4,0.5,0.7C70.6,161.7,70.5,161.8,70.2,162
		C70.3,161.9,70.3,162,70.2,162z M73,161.2c0.5-0.2,0.9-0.4,1.4-0.7c0,0.1,0.1,0.3,0.1,0.4C74,161.1,73.5,161.2,73,161.2
		c0,0.1,0,0.2,0.1,0.2c0.5-0.1,0.9-0.2,1.4-0.3c0,0,0,0,0,0c-0.3,0.5-0.6,1.1-0.9,1.6c-0.1,0-0.2,0.1-0.3,0.1
		c-0.2-0.5-0.3-1-0.4-1.5C73,161.3,73,161.2,73,161.2z M75.6,159.9c0.1-0.1,0.2-0.1,0.3-0.2c0.1,0.3,0.3,0.5,0.4,0.8
		c-0.4,0.1-0.8,0.2-1.2,0.3C75.3,160.5,75.4,160.2,75.6,159.9z M76.2,159.6c0.5-0.3,1-0.5,1.5-0.8c0.1,0,0.1,0,0.2-0.1
		c0.1,0.3,0.2,0.5,0.2,0.8c-0.1,0.2-0.2,0.3-0.3,0.5c-0.4,0.1-0.8,0.2-1.2,0.3C76.5,160.1,76.4,159.9,76.2,159.6z M77.3,161.6
		c0.4-0.1,0.8-0.3,1.2-0.4c0,0.2,0.1,0.4,0.1,0.5c-0.5,0.1-0.9,0.3-1.4,0.4c0-0.1-0.1-0.2-0.1-0.4C77.2,161.8,77.3,161.7,77.3,161.6
		z M78.6,160.1c0.7-0.2,1.4-0.4,2.1-0.6c0,0.1,0.1,0.3,0.1,0.4c-0.1,0.1-0.1,0.3-0.2,0.4c-0.6,0.2-1.2,0.4-1.8,0.6c0,0,0,0,0,0
		C78.8,160.6,78.7,160.3,78.6,160.1z M78.9,161.1c0.5-0.2,1.1-0.4,1.6-0.5c-0.1,0.2-0.2,0.5-0.3,0.7c-0.1,0-0.2,0.1-0.3,0.1
		c-0.3,0.1-0.6,0.2-0.9,0.3C79,161.4,78.9,161.3,78.9,161.1L78.9,161.1z M80.1,161.5c-0.1,0.1-0.1,0.2-0.2,0.3
		c-0.2,0-0.5,0.1-0.7,0.1c0-0.1,0-0.1-0.1-0.2C79.4,161.7,79.7,161.6,80.1,161.5z M80.6,161.3c0.2-0.1,0.5-0.1,0.7-0.2
		c0,0.1,0.1,0.3,0.1,0.4c-0.3,0.1-0.7,0.2-1,0.2C80.5,161.6,80.6,161.5,80.6,161.3z M79.5,156.3c0,0,0.1,0.1,0.1,0.1
		c0.1,0.2,0.1,0.3,0.2,0.5c-0.3,0.2-0.7,0.3-1,0.5c0-0.1-0.1-0.2-0.1-0.3c-0.1-0.2-0.2-0.6-0.4-1c0.2,0,0.4-0.2,0.4-0.4
		C79,155.9,79.3,156.1,79.5,156.3z M73.4,141.2c1,1.8,2.1,3.7,3.1,5.5c0.1,0.1,0.1,0.2,0.2,0.4c0,0-0.1,0-0.1-0.1
		c-1-1.5-1.9-3-2.8-4.5c-1.1-2-2.4-4-3.3-6.1C71.6,137.9,72.5,139.5,73.4,141.2z M71.5,140.8c1,1.6,1.9,3.3,2.8,5
		c-1.6-2.6-3.1-5.2-4.3-7.9C70.4,138.9,70.9,139.9,71.5,140.8z M75,148.7c0.3,1.4,1,2.8,1.6,4.1c-0.1-0.1-0.2-0.2-0.3-0.4
		c-1.4-2.6-2.7-5.1-4.2-7.7c-0.4-0.7-0.8-1.5-1.2-2.2c-1.1-2-2.2-4-3.1-6c0.2,0.2,0.3,0.5,0.5,0.7c0,0,0,0,0,0l0,0
		c0,0,0,0.1,0.1,0.1c0.1,0.1,0.2,0.2,0.3,0.1C70.5,141.3,72.7,145,75,148.7z M70.8,143.9c0.3,0.5,0.5,0.9,0.8,1.4
		c0.6,1.1,1.2,2.3,1.8,3.4c-0.2-0.2-0.4-0.4-0.6-0.7c-0.3-0.3-0.9,0.1-0.7,0.5c0.1,0.1,0.2,0.2,0.2,0.3c-0.1-0.2-0.2-0.4-0.4-0.5
		c-0.1-0.1-0.1-0.2-0.2-0.3c-0.2-1.1-0.7-2.2-1.2-3.1c-0.9-1.9-1.8-3.8-2.7-5.6C68.9,140.8,69.8,142.4,70.8,143.9z M71.1,148.2
		c-0.3-0.4-0.6-0.8-0.9-1.1c-0.6-1-1.2-2-1.8-3c-0.1-0.2-0.2-0.3-0.3-0.5c0.9,1.4,1.9,2.8,2.9,4.2C71,147.9,71.1,148,71.1,148.2z
		 M69.2,143.6c0.4,0.9,1,1.9,1.4,2.9c-2.1-3.1-4.1-6.2-6-9.4c0,0,0-0.1,0-0.1c0-0.1-0.1-0.1-0.1-0.2c0.2,0,0.3-0.2,0.3-0.4
		c0-0.3-0.1-0.6-0.2-0.8c0.4,0.4,0.8,0.8,1.2,1.2c0,0.1,0.1,0.1,0.1,0.2C67,139.1,68.1,141.4,69.2,143.6z M67.9,146.3
		c-1.6-2.4-3-4.9-4.4-7.4c-0.3-0.6-0.6-1.1-0.9-1.6c-0.1-0.3-0.3-0.7-0.4-1c0.2,0.2,0.3,0.3,0.5,0.5c0.9,1.6,1.8,3.2,2.8,4.7
		c0.6,1.2,1.2,2.3,1.8,3.5C67.4,145.4,67.6,145.9,67.9,146.3z M65.6,130.6c-0.1-0.1-0.2-0.3-0.2-0.4c-1.3-2.3-2.5-4.7-3.8-7
		c-0.6-1-1.1-2-1.7-2.9c-0.4-0.9-0.9-1.9-1.3-2.8c2.8,4.5,5.3,9.3,7.9,13.9C66.2,131.2,65.9,130.9,65.6,130.6z M63.9,129
		c-0.7-1.1-1.3-2.3-2-3.5c-0.6-1-1.1-2.1-1.6-3.1c0.2,0.4,0.4,0.7,0.6,1.1C61.9,125.4,62.9,127.2,63.9,129z M59.8,123
		c-0.7-1.3-1.4-2.5-2.1-3.8c0.1,0,0.2-0.1,0.2-0.2C58.5,120.4,59.1,121.7,59.8,123z M61.3,134.3c-0.1-0.1-0.3-0.1-0.4,0
		c-0.7-1.4-1.4-2.8-1.8-4.3c0.1,0.2,0.3,0.3,0.4,0.5C60,131.7,60.7,133,61.3,134.3z M58,126.2C58,126.2,58,126.2,58,126.2
		c-0.9-1.5-1.8-3-2.6-4.5c-0.5-1-1.3-2.2-1.9-3.4c1.3,2.1,2.5,4.1,3.6,6.2C57.4,125.1,57.7,125.6,58,126.2z M53.9,121.4
		c0.2,0.2,0.6,0.1,0.7-0.2c0.8,1.6,1.7,3.2,2.7,4.8c0.4,0.7,0.8,1.4,1.3,2c-0.3-0.1-0.6,0.1-0.5,0.4c0.6,3.2,2.2,6.1,3.8,8.9
		c2.2,5.1,5.5,9.7,8.7,14.2c-0.3-0.2-0.8,0.2-0.6,0.5c0.1,0.1,0.2,0.2,0.2,0.4c-0.3-0.3-0.6-0.6-0.9-0.8c-0.3-0.3-0.9,0-0.7,0.5
		c0.5,1.1,0.8,2.5,1.3,3.7c-0.4-0.5-0.7-1-1-1.6c-0.1-0.6-0.3-1.2-0.4-1.8c-0.1-0.3-0.5-0.4-0.7-0.2c0-0.1-0.1-0.1-0.1-0.2
		c-0.5-1.2-0.9-2.3-1.3-3.2c-0.8-1.8-1.4-3.5-2.3-5.3c-0.5-1.1-1.2-2.2-1.9-3.2c-1.2-2.6-2.5-5.3-3.9-7.8c-2.2-3.8-4.1-7.7-6.1-11.7
		c0.2,0,0.4-0.2,0.3-0.5c-2.1-4.4-4-9-5.8-13.5c0.6,1.1,1.1,2.2,1.7,3.3c1,2.1,2,4.1,3,6.2C52.1,118.2,52.5,120,53.9,121.4z
		 M44.5,106.7c-0.1-0.2-0.2-0.4-0.3-0.6c0-0.1-0.1-0.1-0.2-0.2c0-0.1-0.1-0.1-0.1-0.2c-0.4-0.6-0.8-1.3-1.1-2
		c-0.1-0.4-0.1-0.9-0.2-1.3c0-0.3-0.4-0.3-0.6-0.2c-0.1-0.3-0.3-0.6-0.4-0.8c-0.1-0.6-0.2-1.2-0.4-1.7c-0.1-0.3-0.4-0.3-0.6-0.2
		c-0.2-0.5-0.5-1-0.7-1.6c-0.1-0.3-0.1-0.7-0.2-1c0-0.2-0.2-0.3-0.4-0.3c-0.1-0.2-0.2-0.5-0.3-0.7c0-0.3-0.1-0.5-0.1-0.8
		c0.9,1.6,1.9,3.2,3,4.7c0.1,0.1,0.2,0.1,0.3,0.1c0.2,0.3,0.3,0.6,0.5,0.8c1.1,3.1,2.4,6.1,3.8,9C45.8,108.8,45.2,107.7,44.5,106.7z
		 M32.1,82.8c-2.2-4.7-4.5-9.4-6.7-14.2c1.2,2.1,2.5,4.3,3.7,6.4c0,0.1,0,0.1,0,0.2c2,4.8,4.1,9.6,6.5,14.3c0,0.1,0,0.3,0,0.4
		c-1.2-2.3-2.4-4.6-3.6-6.8C32.2,83,32.2,82.9,32.1,82.8z M27.2,75.7c-0.2-0.4-0.5-0.8-0.7-1.2c-0.1-0.4-0.2-0.8-0.2-1.3
		c0.3,0.5,0.6,1,0.8,1.5 M23.8,64c-0.2-0.3-0.3-0.6-0.5-0.9c0.4,0.6,0.9,1.2,1.5,1.7c0,0,0,0,0,0c0.1,0.1,0.1,0.2,0.2,0.3
		c0.5,1.2,1.1,2.4,1.7,3.7c0.5,1.1,1.1,2.2,1.7,3.3C26.7,69.4,25.2,66.7,23.8,64z M33.8,83c0.2,0.4,0.4,0.7,0.6,1.1
		c0.6,1.4,1.2,2.8,1.8,4.2c-0.1,0-0.2-0.1-0.3,0c-1.6-3.2-3.1-6.5-4.5-9.8c0.1,0.1,0.1,0.3,0.2,0.4C32.3,80.3,33,81.7,33.8,83z
		 M33.3,77.9c1,1.9,2.1,3.7,3.1,5.5c0.1,0.2,0.2,0.4,0.2,0.6c-1.1-1.9-2.2-3.8-3.3-5.6C33.4,78.2,33.4,78.1,33.3,77.9z M36.4,88.8
		c0.2,0.5,0.5,1,0.7,1.5c0.6,1.2,1.1,2.3,1.7,3.5c-0.8-1.4-1.6-2.8-2.3-4.3C36.5,89.3,36.4,89,36.4,88.8z M47.7,111
		c-1-2-2-4-2.9-6.1c0.1,0.1,0.3,0.2,0.4,0.1c0.4,0.9,0.7,1.7,1.1,2.6C46.8,108.8,47.3,109.9,47.7,111z M43.7,99.9
		c-0.5-1.2-0.9-2.4-1.3-3.7c-0.1-0.3-0.1-0.5-0.2-0.7c0.7,1.5,1.5,3,2.3,4.5c0.6,1.4,1.2,2.9,1.8,4.4
		C45.4,102.9,44.6,101.4,43.7,99.9z M39.5,87.7c-0.6-1.3-1.1-2.6-1.7-3.9c1.4,2.7,2.7,5.5,4,8.3c0.4,0.8,0.8,1.7,1.1,2.5
		c0,0.2,0,0.5,0.1,0.7C41.8,92.8,40.6,90.3,39.5,87.7z M37.9,86.9c0.2,0.6,0.5,1.1,0.7,1.7c0.9,2,1.9,3.9,2.9,5.8
		c-0.1-0.1-0.3,0.1-0.2,0.2c0.1,0.2,0.2,0.3,0.3,0.5c0.1,0.1,0.2,0.1,0.3,0c-0.1,0.6,0,1.3,0.2,1.9c0.1,0.2,0.1,0.4,0.2,0.6
		c-1.3-2.4-2.6-4.9-3.9-7.4c-1.1-2.1-2.2-4.1-3.3-6.1c0-0.1-0.1-0.1-0.1-0.2c-0.2-0.5-0.4-1-0.6-1.6c0.9,1.5,1.8,3,2.8,4.5
		C37.5,87,37.8,87,37.9,86.9z M35.9,78.5c0-0.1-0.1-0.1-0.1-0.2c-1.2-2.2-2.3-4.5-3.4-6.8c1.5,2.8,3.1,5.6,4.7,8.4
		c0.2,0.6,0.4,1.2,0.6,1.8C37.1,80.7,36.5,79.6,35.9,78.5z M33.9,72.8c-0.8-1.5-1.6-3-2.4-4.5c0.6,1,1.1,2.1,1.7,3.1
		c0.7,1.2,1.3,2.4,1.9,3.6C34.7,74.3,34.3,73.6,33.9,72.8z M34.5,77.7c0,0,0,0.1,0,0.1c-0.3-0.4-0.6-0.7-0.9-1.1
		c-0.2-0.3-0.3-0.6-0.5-0.9c-0.2-0.4-0.4-0.8-0.7-1.2c-0.5-0.9-1-1.8-1.4-2.8c-0.3-0.6-0.6-1.1-0.8-1.7
		C31.6,72.7,33.1,75.2,34.5,77.7z M32.4,76.1c-0.1,0.1-0.1,0.2-0.1,0.3c0,0,0,0.1,0,0.1c-2.2-3.8-4.4-7.6-6.3-11.6
		c0-0.1,0-0.1,0-0.2c-0.1-0.3-0.3-0.5-0.4-0.8c-0.6-1.2-1.1-2.5-1.6-3.8c1.1,1.4,1.7,3.2,2.6,4.7c1.2,2.2,2.4,4.5,3.5,6.8
		C30.8,73.1,31.6,74.6,32.4,76.1z M23,53c0.1,0,0.2-0.1,0.2-0.1c0.2,0.3,0.4,0.7,0.6,1c0.5,1,1,2.1,1.5,3.1
		C24.6,55.6,23.8,54.3,23,53z M24.1,53.1c-0.1-0.2-0.2-0.3-0.3-0.5c0,0,0.1,0,0.1-0.1c0.4,0.7,0.7,1.4,1.1,2
		C24.8,54,24.5,53.6,24.1,53.1z M23.7,52.3c-0.3-0.6-0.6-1.3-1-1.9c0-0.1-0.1-0.2-0.1-0.4c0.4,0.7,0.9,1.4,1.3,2.2
		C23.8,52.3,23.8,52.3,23.7,52.3z M22.4,48.6c0.2,0.1,0.4,0.2,0.6,0.2c0.2,0.5,0.4,1,0.6,1.6C23.2,49.8,22.8,49.2,22.4,48.6z
		 M23.1,52.6c-0.1,0-0.2,0.1-0.2,0.1c-0.4-0.6-0.8-1.2-1.2-1.8c-0.3-0.7-0.5-1.3-0.5-1.9c0.3,0.5,0.6,1,0.9,1.4
		C22.3,51.3,22.7,52,23.1,52.6z M26.6,73c-0.6-1.2-1.3-2.3-1.9-3.5c0-0.2-0.1-0.5-0.1-0.7c0-0.2-0.3-0.3-0.4-0.3
		c-2.1-3.9-4.3-7.8-6.9-11.4c-0.1-0.1-0.3,0-0.3,0.2c1.7,2.5,3.2,5,4.6,7.6c-0.1,0-0.2,0.1-0.2,0.3c0,0.4,0,0.8,0.1,1.2
		c-0.3-0.4-0.5-0.9-0.8-1.3c0,0,0,0,0,0c0-0.6-0.1-1.1-0.2-1.7c-0.1-0.4-0.7-0.3-0.6,0.1c0,0.1,0,0.2,0,0.3c0,0,0,0,0,0
		c-0.2-0.4-0.4-0.7-0.6-1.1c-0.1-0.7-0.3-1.4-0.5-2.1c-0.1-0.3-0.6-0.3-0.6,0c-0.2-0.4-0.4-0.7-0.6-1.1c-0.1-0.7-0.3-1.4-0.5-2
		c-0.1-0.3-0.4-0.3-0.6-0.1c-0.1-0.2-0.2-0.4-0.3-0.5c0,0,0,0,0,0c-0.1-0.7-0.2-1.4-0.4-2.2c-0.1-0.3-0.5-0.4-0.6,0c0,0,0,0.1,0,0.1
		c-0.1-0.1-0.1-0.3-0.2-0.4c0-0.5,0-0.9-0.1-1.4c0.6,1,1.3,1.9,1.9,2.9c1.7,2.7,3.3,5.4,5.3,7.9C23.6,66.8,25.1,69.9,26.6,73z
		 M25.6,72.5c-0.2,0-0.6,0.1-0.6,0.3v0c0-0.2-0.1-0.4-0.2-0.6c-0.1-0.5-0.1-1-0.2-1.5C24.9,71.3,25.3,71.9,25.6,72.5z M23.8,68.9
		c-0.1,0.4-0.1,0.8-0.2,1.2c-0.3-0.5-0.6-1.1-1-1.6c-0.1-0.9-0.3-1.7-0.5-2.6C22.7,66.9,23.3,67.9,23.8,68.9z M21.5,67.9
		c0.2,2.9,0.4,5.8,0.5,8.7c-0.6-3.3-0.9-6.6-1.2-9.9C21,67,21.3,67.4,21.5,67.9z M23.6,71.5c0,1.6,0.2,3.2,0.2,4.6
		c0.1,2.1,0.3,4.1,0.2,6.2c-0.1-0.2-0.2-0.3-0.3-0.5c0-0.5,0-1,0-1.5c-0.1-1.8-0.2-3.6-0.3-5.4c-0.1-1.5-0.2-3-0.4-4.5
		C23.2,70.8,23.4,71.2,23.6,71.5z M25.4,74.7c0.1,1.9,0.2,3.8,0.3,5.7c0.1,1.4,0.3,2.8,0.2,4.1c-0.4-2.2-0.5-4.4-0.6-6.7
		c-0.1-1.2-0.1-2.4-0.2-3.6C25.2,74.3,25.3,74.5,25.4,74.7z M27.1,77.5c0,1,0,2.1,0,3.1c-0.1-1.2-0.2-2.5-0.4-3.7
		C26.9,77.1,27,77.3,27.1,77.5z M26.5,80.9c0.1,0.6,0.1,1.3,0.2,1.9c0.1,1.4,0.3,2.8,0.5,4.2c-0.2-0.3-0.4-0.6-0.6-0.9
		C26.8,84.3,26.6,82.6,26.5,80.9z M24.6,77.7c-0.1-0.9-0.1-1.8-0.1-2.6c0.1,1.1,0.2,2.3,0.2,3.4c0.1,1.8,0.1,3.6,0.4,5.4
		c-0.1-0.2-0.3-0.4-0.4-0.6C24.8,81.4,24.7,79.6,24.6,77.7z M22.3,70.7c0.2,1.9,0.4,3.8,0.5,5.7c0.1,1.3,0,2.7,0,4.1
		c-0.2-0.2-0.3-0.5-0.4-0.7c0.1-0.1,0.1-0.1,0.1-0.2C22.7,76.6,22.5,73.7,22.3,70.7z M20,65.2c0.1,1.4,0.1,2.8,0.2,4.2
		c0.1,1.5,0.3,2.9,0.1,4.4c-1.2-3-0.7-6.4-0.9-9.7C19.6,64.5,19.8,64.9,20,65.2z M13.9,52.6c0,0-0.1-0.1-0.1-0.1c0,0,0,0,0,0
		c0.1,0,0.1,0,0.2-0.1C13.9,52.5,13.9,52.6,13.9,52.6z M18.1,61.6c-0.1,3.3,0.3,6.7,0.1,10c-0.2-2.1,0-4.5-0.1-6.4
		c-0.1-1.4-0.1-2.8-0.3-4.2C17.9,61.1,18,61.3,18.1,61.6z M18.7,63.2c0.5,4-0.4,8.2,1.5,11.8c0.1,0.3,0.5,0.2,0.6,0
		c0.1-0.3,0.1-0.5,0.2-0.8c0.2,1.4,0.4,2.8,0.7,4.2c-0.7-1.4-1.5-2.7-2.3-4.1c-0.2-0.4-0.5-0.8-0.7-1.1
		C19.1,69.9,18.7,66.5,18.7,63.2z M26.2,86.8c0,0,0.1,0,0.1,0c0.2,0.2,0.3,0.4,0.5,0.6c0.1,0.1,0.3,0.1,0.4,0c0,0.2,0.1,0.5,0.1,0.7
		c0,0.2,0,0.4,0,0.6C26.9,88.1,26.6,87.5,26.2,86.8z M27.9,81.6c0.3,3.1,0.5,6.3,0.8,9.4c-0.1-0.1-0.2-0.3-0.3-0.4c0,0,0-0.1,0-0.1
		C28.5,87.6,28.1,84.6,27.9,81.6z M35.9,91.7c0.3,2.8,0.6,5.5,0.8,8.3c-0.3-1.1-0.6-2.1-0.9-3.2c-0.6-2.6-0.8-5.2-1.9-7.6
		c-0.2-0.4-0.7-0.2-0.7,0.1c0,0.1,0,0.3,0,0.4c-0.1-1-0.3-2.1-0.4-3.1C33.8,88.3,34.9,90,35.9,91.7z M37.4,99.1c0-0.2,0-0.3,0-0.5
		c0.2,1.5,0.4,3,0.6,4.5C37.6,101.8,37.5,100.5,37.4,99.1z M43.5,106.9c0,0.4,0,0.8,0,1.1c-0.1-0.6-0.2-1.2-0.3-1.7
		C43.3,106.5,43.4,106.7,43.5,106.9z M44,115.1c-0.3-0.7-0.7-1.3-1-2c-0.1-1.3-0.1-2.7-0.3-4c0-0.2,0-0.5,0-0.7
		c0-0.7-0.1-1.4-0.2-2.2C42.9,109.2,43.4,112.2,44,115.1z M70.3,160.6c0-0.9,0.2-1.8,0.4-2.7C70.8,158.1,70.4,160.5,70.3,160.6z
		 M67.9,163.9c0.1,0,0.1,0,0.2-0.1c0,0.2,0.1,0.3,0.1,0.5c0,0,0,0,0,0.1c0,0-0.1,0-0.1,0C68,164.2,68,164,67.9,163.9z M68.5,157.1
		c-0.1-0.8-0.2-1.6-0.3-2.4c0.5,2.1,0.8,4.3,1.1,6.5c0,0,0.1,0.8,0.1,1.1c0,0.1-0.2,1.3-0.2,1.9c-0.1,0-0.2,0-0.3,0c0,0,0-0.1,0-0.1
		C69,161.8,68.8,159.5,68.5,157.1z M70,164.6c-0.1-0.7,0.3-1.3,0.5-1.6c0.2-0.2,0.3-0.4,0.5-0.6c0.1,0.4,0.6,1.7,0.6,1.9
		c-0.5,0.2-1,0.4-1.5,0.5C70,164.8,70,164.7,70,164.6z M73.4,162.9c0.1,0,0.1,0,0.2-0.1c0,0.1-0.1,0.2-0.1,0.2
		C73.4,163,73.4,163,73.4,162.9z M74.1,162.7c0.2-0.1,0.4-0.1,0.6-0.2c0,0.2,0.1,0.4,0.1,0.6c-0.1,0-0.1,0-0.2,0.1
		c-0.3,0.1-0.7,0.2-1,0.4C73.8,163.2,74,163,74.1,162.7z M74.8,161.4c0.1-0.1,0.2-0.3,0.2-0.4c0.5-0.1,0.9-0.2,1.4-0.3
		c0.1,0.3,0.3,0.5,0.4,0.8c0,0,0,0.1,0,0.1c-0.6,0.2-1.2,0.4-1.7,0.6c-0.1,0-0.1,0-0.2,0.1C74.9,162,74.8,161.7,74.8,161.4z
		 M76.8,161.8c-0.1,0.2-0.3,0.5-0.4,0.7c-0.4,0.1-0.8,0.3-1.3,0.4c0-0.2-0.1-0.4-0.1-0.6C75.6,162.2,76.2,162,76.8,161.8z
		 M76.2,162.8c-0.3,0.5-0.5,1-0.8,1.5c-0.1-0.4-0.2-0.7-0.3-1.1C75.5,163.1,75.8,162.9,76.2,162.8z M76.7,162.6
		c0.1,0,0.2-0.1,0.4-0.1c0.2,0.6,0.4,1.3,0.6,1.9c-0.7,0.2-1.4,0.3-2.1,0.4C75.9,164.1,76.3,163.3,76.7,162.6z M79.2,162.2
		c0.2,0,0.4-0.1,0.5-0.1c-0.1,0.2-0.2,0.5-0.3,0.7C79.4,162.6,79.3,162.4,79.2,162.2z M80.3,162c0.4-0.1,0.8-0.2,1.2-0.3
		c0.2,0.4,0.3,0.9,0.5,1.3c-0.7,0.2-1.5,0.5-2.2,0.7c0-0.1-0.1-0.2-0.1-0.2C79.9,163,80.1,162.5,80.3,162z M79.9,164
		c0.5-0.2,1.1-0.3,1.6-0.5c0.2-0.1,0.4-0.1,0.7-0.2c0.1,0.2,0.2,0.4,0.3,0.6c0,0.1-1.4,0.6-2.2,0.8C80.1,164.4,80,164.2,79.9,164z
		 M82.5,163.1c0.3-0.1,1.5-0.4,1.4-0.4c0.1,0,0.1,0,0.2-0.1c0,0.1-0.1,0.2-0.1,0.3c-0.1,0.2-0.1,0.5-0.2,0.7
		c-0.2,0.1-0.5,0.1-0.7,0.2c-0.1,0-0.3,0-0.4-0.1C82.7,163.5,82.6,163.3,82.5,163.1z M84.4,163.5c0.1-0.3,0.2-0.7,0.3-1
		c0.7-0.2,1.4-0.4,2.1-0.6c-0.1,0.4-0.2,0.7-0.4,1.1C85.8,163.1,85.1,163.3,84.4,163.5z M86.8,162.8c0.1-0.4,0.2-0.7,0.4-1.1
		c1.6-0.5,3.2-1,4.8-1.5c0,0,0,0,0,0c-0.2,0.4-0.3,0.9-0.4,1.3C90,161.9,88.4,162.4,86.8,162.8z M92.1,161.4
		c0.1-0.4,0.3-0.9,0.4-1.3c0.6-0.2,1.9-0.6,1.9-0.6c0,0.1,2.4-0.8,3.3-1c-0.1,0.4-0.3,0.9-0.4,1.3C95.6,160.4,93.9,160.9,92.1,161.4
		z M104.1,156.6c0.4-0.1,0.8-0.2,1.2-0.3c-0.1,0.4-0.2,0.7-0.2,1.1c-0.5,0.2-1,0.3-1.4,0.5C103.8,157.4,103.9,157,104.1,156.6z
		 M105.5,157.2c0.1-0.4,0.2-0.7,0.4-1.1c0.9-0.2,1.7-0.5,2.6-0.7c-0.2,0.4-0.4,0.7-0.6,1.1C107.1,156.7,106.3,157,105.5,157.2z
		 M106.1,155.6c0.3-0.7,0.6-1.4,0.9-2.1c1-0.3,1.9-0.6,2.9-0.8c-0.4,0.7-0.7,1.5-1.1,2.2C107.9,155.1,107,155.4,106.1,155.6z
		 M110.2,152.9c0.1-0.1,0.1-0.2,0.2-0.3c0.6-0.2,1.2-0.3,1.9-0.5c0,0,0,0.1-0.1,0.1c-0.3,0.6-0.5,1.3-0.7,1.9
		c-0.7,0.2-1.4,0.4-2,0.6C109.6,154.1,109.9,153.5,110.2,152.9z M112.7,151.9c1-0.3,2.1-0.6,3.1-0.9c-0.3,0.7-0.6,1.3-0.9,2
		c-1,0.3-2,0.6-2.9,0.9C112.2,153.2,112.4,152.5,112.7,151.9z M116.3,150.9c0.3-0.1,0.7-0.2,1-0.3c0.7-0.2,1.3-0.4,2-0.5
		c-0.3,0.7-0.7,1.4-1,2c-1,0.3-1.9,0.6-2.9,0.8C115.7,152.2,116,151.6,116.3,150.9z M119.9,149.9c0.5-0.2,4.4-1.2,5.6-1.6
		c-0.4,0.6-0.7,1.3-1,2c-1.8,0.5-3.7,1.1-5.5,1.6C119.2,151.2,119.5,150.6,119.9,149.9z M126,148.2c0.9-0.2,1.7-0.5,2.6-0.7
		c-0.2,0.3-0.4,0.6-0.5,0.9c-0.1,0.1-0.2,0.5-0.4,1c-0.9,0.3-1.7,0.5-2.6,0.8C125.3,149.5,125.7,148.8,126,148.2z M129.1,147.3
		c0.9-0.3,1.9-0.5,2.8-0.8c-0.3,0.6-0.6,1.2-0.8,1.8c-1,0.3-2,0.6-3,0.9C128.4,148.6,128.8,147.9,129.1,147.3z M132.3,146.4
		c0.7-0.2,1.3-0.4,2-0.6c-0.3,0.6-0.7,1.2-0.9,1.8c-0.6,0.2-1.3,0.4-1.9,0.6C131.7,147.6,132,147,132.3,146.4z M134.7,145.7
		c0.8-0.2,1.7-0.5,2.5-0.7c-0.4,0.6-0.7,1.2-1,1.8c-0.8,0.2-1.6,0.5-2.3,0.7C134,146.9,134.4,146.3,134.7,145.7z M157.4,140.5
		c-0.1,0-0.3,0.1-0.4,0.1c0.6-0.7,1.2-1.4,1.8-2.1c0.8-0.3,1.7-0.5,2.5-0.8c-0.2,0.2,0.2,0.5,0.4,0.2c0.1-0.2,0.2-0.3,0.4-0.5
		c1.1-0.3,2.2-0.7,3.3-1.1c-0.5,0.6-0.9,1.1-1.4,1.7c-2.1,0.8-4.3,1.6-6.4,2.5C157.6,140.6,157.6,140.5,157.4,140.5z M165,137.8
		c0.5-0.5,0.9-1.1,1.3-1.6c1-0.3,2.1-0.7,3.1-1c0.3-0.1,0.2-0.5-0.1-0.4c-0.9,0.3-1.7,0.5-2.6,0.8c0.2-0.3,0.5-0.6,0.7-0.9
		c0.1,0,0.1,0,0.2-0.1c0.1,0,0.3-0.1,0.4-0.1c0.9-0.3,1.8-0.6,2.6-0.8c-0.7,0.9-1.3,1.9-1.9,2.9c-0.2,0.1-0.3,0.1-0.5,0.2
		C167.3,137.1,166.1,137.4,165,137.8z M169.5,136.2c0.6-1,1.3-1.9,1.9-2.8c0.8-0.3,1.7-0.6,2.5-0.8c-0.3,0.8-0.7,1.5-1.1,2.3
		c0,0,0,0,0,0C171.8,135.3,170.6,135.8,169.5,136.2z M173.6,134.6c0.4-0.7,0.7-1.5,1.1-2.3c0.4-0.1,0.8-0.3,1.2-0.4
		c-0.4,0.7-0.7,1.4-1,2.2C174.4,134.3,174,134.4,173.6,134.6z M175.6,133.8c0.4-0.7,0.7-1.4,1.1-2.1c0.7-0.2,1.4-0.5,2.1-0.7
		c-0.4,0.7-0.9,1.4-1.3,2.1C176.8,133.3,176.2,133.5,175.6,133.8z M177.4,130.4c0.1-0.3,0.3-0.5,0.4-0.8c0.7-0.3,1.4-0.5,2.2-0.8
		c-0.2,0.3-0.4,0.6-0.5,0.9C178.7,130,178,130.2,177.4,130.4z M177.1,129.6c-0.5,0.2-0.9,0.3-1.4,0.5c0.4-0.8,0.8-1.6,1.2-2.4
		c0.5-0.1,1-0.3,1.5-0.4C178,128,177.5,128.8,177.1,129.6z M176.3,127.5c-0.5,0.1-1,0.3-1.6,0.4c0.6-0.2,1.1-0.4,1.7-0.6
		C176.3,127.4,176.3,127.5,176.3,127.5z M154.9,136.1c-1.8,0.5-3.7,0.9-5.5,1.4c0.1-0.2-0.2-0.4-0.3-0.2c-0.1,0.1-0.1,0.2-0.2,0.3
		c-0.6,0.2-1.2,0.3-1.8,0.5c0.1-0.1,0.1-0.2,0.2-0.3c0.2-0.3,0.5-0.7,0.8-1c2.8-1.1,5.6-2.1,8.5-3
		C156.5,133.9,155.4,135.5,154.9,136.1z M146.6,138.2c0,0,0,0.1-0.1,0.1c-2,0.5-3.9,1.1-5.9,1.6c0.1-0.1,0.3-1,0.4-1.1
		c1.5-0.5,5.7-1.5,6.4-1.7C147.1,137.5,146.8,137.8,146.6,138.2z M140.1,140.1c-0.9,0.3-1.8,0.5-2.7,0.8c0.1-0.1-0.1-0.3-0.2-0.1
		c0,0.1-0.1,0.1-0.1,0.2c-2.8,0.8-5.5,1.6-8.3,2.4c0.1-0.1,0.1-0.2,0.2-0.3c0.5-0.2,1.1-0.3,1.6-0.5c3.3-0.9,7-2.6,10.2-3.6
		C140.7,139,140.2,139.9,140.1,140.1z M128.2,143.4c-2,0.6-4,1.2-6,1.8c0.1-0.1,0.1-0.2,0.2-0.3c2-0.6,4-1.2,6-1.8
		C128.4,143.2,128.3,143.3,128.2,143.4z M121.8,145.4c-2.4,0.7-4.7,1.5-7.1,2.2c0-0.1,0.1-0.2,0.1-0.3c2.4-0.8,4.8-1.5,7.2-2.2
		C121.9,145.2,121.8,145.3,121.8,145.4z M114.2,147.7c-0.5,0.2-1.1,0.3-1.6,0.5c0.1-0.1,0.1-0.2,0.2-0.3c0.5-0.2,1-0.3,1.5-0.5
		C114.3,147.5,114.3,147.6,114.2,147.7z M112.1,148.3c-1.7,0.5-3.4,1-5.1,1.6c0-0.1,0.1-0.1,0.1-0.2c1.7-0.5,3.4-1.1,5.1-1.6
		C112.2,148.1,112.2,148.2,112.1,148.3z M106.8,150c-3.2,1-6.5,1.9-9.8,2.9c-0.6,0.2-1.2,0.4-1.9,0.5c0,0,0,0,0,0
		c1-0.3,1.9-0.6,2.9-0.9c2.9-0.9,5.9-1.8,8.8-2.7C106.8,149.8,106.8,149.9,106.8,150z M94.7,153.5C94.7,153.5,94.7,153.5,94.7,153.5
		c-2.6,0.8-5.1,1.6-7.7,2.4c0,0,0-0.1,0-0.1C89.6,155,92.2,154.2,94.7,153.5z M86.6,156c-1.2,0.4-2.4,0.7-3.6,1.1
		C84.2,156.7,85.4,156.3,86.6,156C86.6,156,86.6,156,86.6,156z M82.4,154.7c0-0.2-0.2-0.2-0.3-0.2c-0.6-0.9-1.2-1.9-1.4-3
		c1.5,0.7,2.3,2.4,3.5,3.4c-0.5,0.2-1,0.4-1.5,0.6C82.6,155.3,82.5,155,82.4,154.7z M73.5,134.9c-0.1-0.1-0.2-0.3-0.2-0.4
		c0.2-0.1,0.3-0.3,0.2-0.5c-0.3-0.6-0.6-1.2-0.8-1.7c0,0,0.1-0.1,0.1-0.1c0.4,0.8,0.9,1.6,1.3,2.4C73.9,134.7,73.7,134.8,73.5,134.9
		z M72.2,134.4c0.1,0.3,0.3,0.6,0.4,1c-0.1,0,0,0.2,0,0.2c0,0.1,0,0.1,0,0.2c0,0,0,0,0,0c-0.6-0.7-1.2-1.5-1.8-2.2
		c-0.1-0.2-0.1-0.4-0.2-0.6c0.1,0,0.1,0,0.2,0C71.3,133.3,71.8,133.8,72.2,134.4z M70.6,132.8C70.6,132.7,70.6,132.7,70.6,132.8
		C70.6,132.7,70.6,132.7,70.6,132.8C70.6,132.8,70.6,132.8,70.6,132.8z M70,131.5c-0.1,0-0.3,0-0.4,0.1c-1.5-2.7-3-5.3-4.5-8
		c-1-1.9-2.1-3.8-3-5.8c0.8,0.9,1.5,1.9,1.6,2.9c0,0.4,0.5,0.3,0.7,0.1c2,3.5,4,7.1,6.3,10.4c0.2,0.3,0.3,0.6,0.4,0.9
		C70.7,131.8,70.4,131.6,70,131.5z M64.2,123.5c0,0.1,0.1,0.1,0.1,0.2c1.5,2.9,3,5.7,4.6,8.5c0,0.1-0.1,0.1-0.1,0.2c0,0,0,0,0,0.1
		c-0.6-0.7-1.1-1.4-1.8-2c-0.1-0.1-0.2-0.1-0.3-0.1c-3-5.4-5.8-10.8-8-16.5C60.7,117,62.4,120.2,64.2,123.5z M52.1,99.7
		c1.3,2.9,2.6,5.8,4.1,8.6c0.4,0.7,0.7,1.5,1.1,2.2c-0.1,0-0.1,0-0.2,0c-1.7-3.6-3.4-7.1-5.1-10.6C52,99.8,52.1,99.8,52.1,99.7z
		 M48.2,104.9c0.1,0.1,0.1,0.1,0.2,0.1c0.3,0.7,0.6,1.3,0.9,1.9c0.8,1.8,1.8,3.6,2.8,5.3c-0.2,0-0.3,0.1-0.3,0.3
		c0.1,1.1,0.3,2,0.7,2.9c-0.1,0-0.2,0.1-0.2,0.2c-0.2-0.4-0.4-0.8-0.6-1.2c-0.1-0.3-0.3-0.7-0.3-1c0-0.1-0.1-0.1-0.2,0
		c-0.9-1.8-1.7-3.6-2.5-5.4c-0.8-1.7-1.5-3.4-2.1-5.1c0.1,0,0.2-0.1,0.2-0.2C47.1,103.5,47.6,104.2,48.2,104.9z M46.7,92.2
		c-0.2-0.1-0.4-0.1-0.6,0c-0.2-0.5-0.5-1.1-0.7-1.6c-1-2.1-1.9-4.2-2.7-6.4c-0.4-0.9-0.8-1.8-1.2-2.8c0.2,0.2,0.3,0.4,0.5,0.6
		c0,0,0,0,0,0c0.9,2.8,2.6,5.5,3.9,8.1c0,0,0,0,0,0.1C46.2,91,46.4,91.6,46.7,92.2C46.7,92.3,46.7,92.3,46.7,92.2z M41.6,84.7
		c0.9,1.9,1.8,3.8,2.6,5.7c0.6,1.5,1.3,3,1.9,4.5c0,0-0.1,0-0.1,0c-1.6-3.4-3.3-6.8-4.8-10.3C41.3,84.7,41.5,84.7,41.6,84.7z
		 M44.2,94c0,0.3,0.1,0.7,0.2,1c-0.1-0.1-0.1-0.2-0.2-0.3c0-0.1-0.1-0.1-0.1-0.2c-1.8-3.7-3.6-7.4-5-11.2c0.2,0.3,0.4,0.7,0.6,1
		c0.1,0.1,0.3,0.2,0.4,0.2c0.3,0.7,0.6,1.4,0.9,2.1C42.1,89.2,43.1,91.6,44.2,94z M31.5,66c1.9,4.2,4.1,8.3,6.4,12.4
		c-0.1-0.1-0.2-0.2-0.3-0.3c-1.1-2.2-2.2-4.3-3.3-6.4c-1.8-3.3-3.5-6.5-5.5-9.6c0.1,0,0.2-0.2,0.2-0.3C29.8,63.2,30.7,64.6,31.5,66z
		 M30,56.9c0,0.1,0.1,0.2,0.1,0.3c0,0,0,0,0,0C30.1,57.1,30,57,30,56.9z M29.2,59.8c-0.1,0.1-0.2,0.2-0.1,0.4c0,0.1,0.1,0.2,0.1,0.3
		c-0.9-1.6-1.8-3.1-2.7-4.7c-0.6-1.2-1.1-2.4-1.6-3.7c0.1,0,0.1-0.1,0.2-0.1C26.6,54.5,27.9,57.2,29.2,59.8z M25.9,50.1
		c-0.2-0.4-0.8-0.1-0.6,0.3c0.1,0.3,0.3,0.7,0.4,1c0,0,0,0,0,0c-0.4-0.7-0.9-1.4-1.4-2.1c0.1,0,0.1,0.1,0.2,0.1
		c0.6,0.2,1.1,0.2,1.6,0.4c0.1,0.4,0.2,0.8,0.3,1.1C26.2,50.7,26.1,50.4,25.9,50.1z M22.4,47.8c0.3-0.2,0.6-0.4,1-0.5
		c1.1-0.5,1.8,0.3,2.3,1.5C24.5,48.7,23.5,48.1,22.4,47.8z M15,49.7c0.5,0.4,1.1,0.6,1.6,1c0.4,0.6,1,1.2,1.5,1.8c0,0,0,0.1,0,0.1
		c-0.4-0.5-0.8-1-1.2-1.4c-0.2-0.2-0.6,0-0.5,0.3c0.6,1.1,1.3,2.2,1.9,3.3c-1-1.4-2-2.9-3.1-4.4c-0.2-0.2-0.6,0.1-0.4,0.3
		c1.6,2.3,3.1,4.7,4.5,7.1c0.4,0.6,0.7,1.2,1.1,1.9c0.4,0.8,0.7,1.6,1.1,2.4c-1.7-2.2-3.2-4.7-4.7-7.1c-0.6-0.9-1.2-1.7-1.9-2.6
		c0-0.3,0-0.5-0.1-0.8c0-0.3-0.4-0.3-0.5-0.1c-0.3-0.6-0.6-1.2-0.8-1.9c0.5-0.2,1-0.4,1.6-0.6c0,0-0.1,0-0.1,0
		C14.8,49.3,14.8,49.6,15,49.7z M13.3,49.8c0,0.1,0.2,0.1,0.2,0c0.1,0.4-0.3-0.1,0,0.7c0.2,0.5,0.4,0.9,0.7,1.3
		c-0.1,0.2-0.2,0.4-0.3,0.6c0-0.1,0-0.1-0.1-0.2c-0.1-0.1-0.2-0.1-0.3-0.2c0-0.2-0.1-0.4-0.1-0.6c-0.1-0.2-0.5-0.3-0.5,0
		c0,0.1,0,0.1,0,0.2c-0.1-0.1-0.3-0.1-0.4,0c0.1-0.2,0.2-0.3,0.3-0.5c0.2-0.1-0.1-0.4-0.2-0.2c-0.4,0.4-0.6,1-0.6,1.5
		c-0.3,0.5-0.5,1-0.6,1.5c0.1-0.4,0.1-0.8,0.2-1.2c0-0.3,0.1-0.8,0.1-1.3c0.1,0.1,0.3,0.1,0.3-0.1C11.8,50.7,12.4,50.2,13.3,49.8z
		 M12.2,53.3c0.1-0.3,0.3-0.6,0.5-0.9c-0.2,1.3-0.2,2.5-0.1,3.9c0.1,0.9,0.1,1.8,0.2,2.7c0,0.3-0.1,2.8-0.4,1.3
		c-0.3-1.6,0-3.3,0.1-4.9C12.4,54.8,12.2,54.1,12.2,53.3z M11.4,59.3c-0.2-1.9-0.1-3.6,0.5-5.3c0,0.3,0.1,0.6,0.1,0.9
		c0.1,2.4-0.7,4.7,0.3,7c0.1,0.2,0.4,0.2,0.4,0c0.6-1.1,0.6-2.2,0.5-3.5c-0.1-1.9-0.3-3.7,0-5.5c0.7,3.8,0.5,8,0.4,11.8
		C12.6,63,11.9,61.2,11.4,59.3z M16.6,70c0.2,0.1,0.4,0,0.4-0.3c0-2,0-4,0-6c0-1.4-0.1-2.8-0.1-4.2c0.4,2.1,0.4,4.2,0.5,6.3
		c0.1,1.8-0.1,3.8,0.1,5.6c-0.2-0.2-0.3-0.5-0.5-0.7C16.9,70.5,16.7,70.2,16.6,70z M29.6,92.3c-0.4-4.2-0.7-8.4-1.2-12.6
		c0.3,0.4,0.5,0.8,0.8,1.3c0,0.1,0,0.1,0,0.2c0.3,3.1,0.5,6.2,0.5,9.4c0,0.6,0.1,1.4,0.1,2.1C29.8,92.5,29.7,92.4,29.6,92.3z
		 M30.5,93.2c0,0.2,0.1,0.4,0.1,0.7c0-0.1-0.1-0.1-0.1-0.2C30.5,93.5,30.5,93.3,30.5,93.2z M31.8,91c0.1,1.7,0.2,3.3,0.3,5
		c-0.1-0.1-0.2-0.2-0.2-0.3C31.9,94,31.9,92.5,31.8,91z M33.9,95.1c0-1.3,0-2.6,0-3.9c0.6,1.9,0.8,3.9,1.2,5.8
		c0.4,1.8,0.9,3.5,1.4,5.3c-0.7-1.1-1.5-2.1-2.2-3.2C34.1,97.7,34,96.4,33.9,95.1z M39,106.1c0-0.1-0.1-0.2-0.1-0.2
		c-0.1-3.6-0.9-7.1-1.1-10.7c0.2,0.4,0.4,0.9,0.7,1.3c0.1,0.9,0.1,1.8,0.2,2.7c0.3,2.4,0.4,4.9,0.7,7.4
		C39.2,106.4,39.1,106.2,39,106.1z M45.5,119.7c0,0,0.1,0.1,0.1,0.1c0,0,0,0,0,0c0,0,0,0,0,0.1c0,0,0-0.1-0.1-0.1
		C45.5,119.8,45.5,119.7,45.5,119.7z M68.2,164.5c0.1,0,0.1,0,0.2,0c0.2,0.1,0.4,0.1,0.6-0.1c0.1,0,0.2,0,0.3-0.1
		c0,0.2,0.1,0.4,0.1,0.7c-0.3,0.1-0.5,0.1-0.8,0.2C68.5,165,68.3,164.7,68.2,164.5z M70.1,165C70.1,165,70.1,165,70.1,165
		c0.5-0.1,2.5-0.8,2.8-0.9c-0.2,0.3,1.5-0.6,1.9-0.7c0.1,0.5,0.2,0.9,0.3,1.4c0,0.1-0.1,0.1-0.1,0.2c-0.7,0.1-1.3,0.1-2,0.1
		c-0.1,0-0.1,0.1,0,0.1c0.7,0,2.2-0.1,2.2-0.1c0,0.2,0.2,0.8,0.3,1c-0.7,0.4-2.1,0.4-2.9,0.5C72.5,166.4,70.9,166.2,70.1,165z
		 M79.5,164.1c0.1,0.2,0.2,0.5,0.3,0.7c-0.2,0.1-0.4,0.1-0.6,0.2C79.2,164.7,79.4,164.4,79.5,164.1z M109.1,155.2
		c0.7-0.2,1.4-0.4,2.1-0.6c-0.1,0.3-0.3,0.6-0.5,0.8c0,0,0,0.1,0,0.1c-0.7,0.2-1.4,0.5-2.1,0.7C108.8,155.9,109,155.6,109.1,155.2z
		 M111.8,154.4c0.6-0.2,1.2-0.3,1.8-0.5c0.4-0.1,0.8-0.2,1.2-0.3c-0.1,0.2-0.2,0.5-0.2,0.7c0,0,0,0.1,0,0.1c-1.1,0.3-2.1,0.7-3.2,1
		C111.5,155.1,111.7,154.8,111.8,154.4z M115.2,153.5c0.9-0.3,1.9-0.5,2.8-0.8c-0.1,0.2-0.2,0.5-0.4,0.7c-0.9,0.3-1.8,0.6-2.7,0.9
		C115,154,115.1,153.7,115.2,153.5z M118.6,152.5c1.8-0.5,3.7-1.1,5.5-1.6c-0.1,0.2-0.1,0.3-0.2,0.5c-1.9,0.6-3.8,1.2-5.7,1.9
		C118.3,152.9,118.5,152.7,118.6,152.5z M124.7,150.7c0.9-0.3,1.8-0.5,2.6-0.8c0,0.1-0.1,0.2-0.1,0.3c-0.9,0.3-1.8,0.6-2.7,0.9
		C124.6,151,124.6,150.8,124.7,150.7z M133.6,148.1c0.2-0.1,0.4-0.1,0.7-0.2C134,148,133.8,148,133.6,148.1
		C133.6,148.1,133.6,148.1,133.6,148.1z M178.4,132.7c-0.1,0-0.2,0.1-0.3,0.1c0.4-0.7,0.9-1.4,1.3-2.1c0.2-0.1,1.4-0.7,1.5-0.7
		c-0.3,0.6-0.7,1.3-1,2C179.4,132.2,178.9,132.5,178.4,132.7z M180,129.6c0.2-0.3,0.4-0.6,0.6-0.9c0.5-0.2,1-0.3,1.5-0.5
		c-0.2,0.3-0.3,0.6-0.5,0.9C181.1,129.3,180.6,129.5,180,129.6z M180.8,128.3c0.1-0.2,0.2-0.4,0.3-0.5c0.1-0.3-0.2-0.5-0.4-0.3
		c-0.2,0.3-0.4,0.7-0.6,1c-0.7,0.3-1.5,0.5-2.2,0.8c0.4-0.8,0.9-1.5,1.3-2.3c0.2,0,0.4-0.1,0.5-0.1c1.3-0.3,2.5-0.7,3.8-1
		c-0.4,0.6-0.9,1.2-1.3,1.9C181.9,127.9,181.3,128.1,180.8,128.3z M178.6,126.9c-0.5,0.1-1,0.3-1.5,0.4c0.1-0.1,0.1-0.2,0.2-0.3
		c0.5-0.2,1-0.4,1.6-0.6C178.8,126.6,178.7,126.8,178.6,126.9z M172,128.1C172,128.1,172.1,128.1,172,128.1
		C172.1,128.1,172.1,128.1,172,128.1c0.6-0.3,1.2-0.4,1.8-0.6C173.2,127.7,172.6,127.9,172,128.1z M171.4,128.3
		c-1.6,0.5-3.1,1-4.7,1.5C168.3,129.3,169.9,128.8,171.4,128.3C171.4,128.3,171.4,128.3,171.4,128.3z M149.1,135.6
		C149.1,135.5,149.1,135.5,149.1,135.6c0.3-0.1,0.5-0.2,0.7-0.3C149.5,135.4,149.3,135.5,149.1,135.6z M97.7,151.6 M84,156
		c0.9-0.3,1.7-0.6,2.6-0.8C85.8,155.4,84.9,155.7,84,156z M84.9,154.7C84.9,154.7,84.9,154.7,84.9,154.7c-0.3-0.6-0.5-1.3-0.6-1.9
		c0.3,0.2,0.7,0,0.7-0.3c0-1.9-1.6-3.8-2.7-5.2c-0.1-0.1-0.1-0.2-0.2-0.3c0.1-0.1,0.3-0.2,0.4-0.3c0.5,0.7,1,1.3,1.4,2
		c0.7,1,1.5,2,2.1,3.1c0.4,0.7,0.6,1.3,0.9,2c0,0.1,0,0.1,0,0.2C86.3,154.3,85.6,154.5,84.9,154.7z M82,146.8
		c-0.3-0.4-0.5-0.8-0.8-1.2c0.1-0.1,0.3-0.2,0.4-0.2c0.3,0.4,0.5,0.8,0.8,1.2C82.3,146.6,82.1,146.7,82,146.8z M83.2,146.1
		c-0.3-0.4-0.6-0.8-0.8-1.2 M82.2,144.8c-0.4-0.6-0.8-1.1-1.2-1.6c-0.3-0.4-0.7-0.9-1-1.3 M77,137.5c-0.7-1.1-1.3-2.1-2-3.2
		 M72.6,132.1c-1.8-3.6-4-7-6-10.4c-1.4-2.4-2.8-4.8-4.4-7.1c0-0.1,0-0.2,0-0.3c-0.9-1.5-1.7-3-2.6-4.5c1.5,2.3,2.9,4.7,4.4,7
		c2.9,4.8,5.7,9.7,8.4,14.6c0.1,0.2,0.2,0.5,0.4,0.7C72.7,132,72.6,132.1,72.6,132.1z M51.6,96.3c-0.1-0.3-0.2-0.5-0.4-0.8
		c0.2,0.3,0.4,0.6,0.5,0.9C51.7,96.4,51.7,96.4,51.6,96.3z M47.9,90.7c0,0-0.1-0.1-0.1-0.1c-0.1-0.3-0.3-0.6-0.4-0.9
		c-1.3-3.1-2.7-6.2-4.3-9c-0.1-0.1-0.2-0.2-0.3-0.2c-0.2-0.3-0.4-0.7-0.7-1c-0.2-0.2-0.4-0.2-0.6,0c-0.3-0.6-0.7-1.3-1.1-1.9
		c-0.1-0.1-0.1-0.2-0.2-0.2c-0.5-0.9-1-1.9-1.6-2.8c-0.4-0.9-0.8-1.8-1.3-2.6c-1-1.9-2-3.8-3-5.7c-0.3-0.7-0.7-1.3-1-1.9
		c0.1,0.1,0.2,0.3,0.3,0.4c2.5,4.3,4.6,8.8,7.1,13.1c0.2,0.3,0.7,0.2,0.7-0.2c0-0.1,0-0.1,0-0.2c2,3.6,3.8,7.2,5.8,10.8
		c0.8,1.4,1.5,2.7,2.3,4.1C49,91.9,48.5,91.3,47.9,90.7z M30.5,58.2c-0.1-0.3-0.2-0.6-0.4-0.9c0,0,0,0,0,0c0.1,0.1,0.1,0.2,0.2,0.3
		c0.3,0.6,0.5,1.2,0.8,1.8C30.9,59,30.7,58.6,30.5,58.2z M12.4,49.8c-0.5,0.3-0.8,0.7-1,1.2c0-0.3,0-0.6-0.1-0.8
		C11.7,50,12.1,49.9,12.4,49.8z M11,51.5c0,0.2,0,0.5-0.1,0.7c-0.1,0.8-0.2,1.7-0.4,2.5c0,0.1,0,0.2,0,0.3
		C10.6,53.8,10.7,52.7,11,51.5z M10.5,58.8c0-0.3,0.2,0.9,0.2,0.8C10.6,59.6,10.5,59.1,10.5,58.8z M30.3,94.8c0-0.1,0-0.2,0.1-0.2
		c0.2,0.3,0.4,0.5,0.6,0.8c0,0.2,0.1,0.5,0.1,0.7C30.7,95.7,30.5,95.3,30.3,94.8z M31.4,97c0.2,0,0.3-0.1,0.3-0.3
		c0.1,0.2,0.3,0.4,0.4,0.6c0,0.4,0.1,0.8,0.1,1.3C32.1,98,31.8,97.5,31.4,97z M33.1,99.9c0,0,0.1-0.1,0.1-0.1
		c0.1-0.3,0.1-0.6,0.1-0.8c0,0,0,0,0,0c0.1,0.6,0.1,1.2,0.2,1.8C33.5,100.5,33.3,100.2,33.1,99.9z M39.6,109.8
		c-1.5-2.5-3.5-4.7-4.9-7.3c0,0,0-0.1-0.1-0.1c0,0,0-0.1,0-0.1c-0.1-0.6-0.1-1.2-0.2-1.8c0.1,0.2,0.3,0.4,0.4,0.6
		c2,4.1,4.5,8,6.7,11.9c0,0,0,0.1,0,0.1c0.2,0.4,0.4,0.9,0.6,1.3c0,0,0,0.1,0,0.1C41.3,112.9,40.5,111.3,39.6,109.8z M67.9,165.4
		c0.1,0,0.2,0,0.2,0c0,0.1,0.1,0.1,0.1,0.2C68.1,165.6,68,165.5,67.9,165.4z M73.5,131.6c-0.3-0.5-0.5-0.9-0.8-1.4
		c-5.4-9.7-11.6-18.9-17-28.5c-2.7-4.8-5.5-9.5-8.2-14.3c-2.7-4.8-5.2-9.6-7.9-14.3c-2.7-4.6-5.5-9.1-7.9-13.8
		c-0.1-0.3-1.7-4-2.1-4.9c-0.2-0.5-2.2-4.8-2.4-5.2c-0.1-0.2-0.3-0.2-0.4-0.2c0,0,0,0,0,0c-0.1-0.1-0.1-0.2-0.2-0.4
		c-0.2-0.7-0.5-1.4-1.1-2c1.8-0.4,5.3-0.9,7.4-1.5c1.1-0.2,2.2-0.5,3.3-0.8c4.5-1.2,9-2.2,13.5-3.2c4.5-0.9,8.9-2.3,13.4-3.3
		c0.8-0.2,1.7-0.4,2.5-0.6c4-0.7,8-1.2,11.9-2.1c4.2-1,8.3-2,12.5-2.9c0.5-0.1,0.9-0.2,1.4-0.3c1.5-0.3,2.9-0.6,4.4-0.9
		c3.6-0.8,7.2-1.6,10.7-2.5c2.2-0.6,4.5-1,6.8-1.5c1.3-0.3,2.9-0.1,4-0.7c0.7,0.1,1.3,0.1,2,0.2c0.8,0.8,2,2.2,2,2.3
		c0.6,0.9,1.1,1.7,1.7,2.6c1.4,2.1,2.7,4.3,4.1,6.4c1.2,1.8,2.6,3.4,4,5.1c1.8,2.2,3.2,4.5,5,6.7c1.6,2.1,3.5,4,5,6.2
		c1.2,1.9,2.4,3.7,3.9,5.4c1.7,1.9,3.2,3.8,4.7,5.9c1.6,2.3,3.7,4.2,5.4,6.3c0,0,0,0,0.1,0.1c1,1.4,1.8,2.8,2.8,4.1
		c6.7,8,13.7,16.5,20.3,24.9c1.4,1.7,1.9,3.7,3.6,5.2c0.4,0.5,0.7,1,1.1,1.4c1.6,2,3.4,3.8,5.2,5.6c0.3,0.3,0.6,0.6,0.9,1
		c0.6,0.7,1.3,1.5,2,2.2c0.8,0.9,1.7,1.9,2.5,2.8c0.5,1.1,0.2,2.5-0.1,3.7c-0.3,1.2-0.5,3-0.7,4.2c-0.1-0.1-2.1,0.4-2.8,0.8
		c-0.6,0.2-1.1,0.3-1.7,0.4c0.2-0.1,0.4-0.2,0.6-0.3c0.2-0.1,0-0.4-0.2-0.3c-0.8,0.4-1.7,0.8-2.5,1.2c-1.9,0.5-3.8,1-5.7,1.7
		c0.3-0.6,0.7-1.3,1-1.9c0.2-0.1,0.5-0.1,0.7-0.2c0.1,0,0.1-0.1,0.1-0.1c0.7-0.2,1.3-0.5,2-0.7c0.1,0,0.1-0.1,0.1-0.2
		c1.8-0.6,3.7-1.3,5.6-1.4c0.2,0,0.2-0.3,0-0.3c-1.9,0-3.6,0.9-5.4,1.4c-0.3,0.1-0.6,0.2-0.9,0.3c1-0.4,2.1-0.9,3.1-1.3
		c0.2-0.1,0-0.4-0.2-0.3c-1.5,0.6-2.9,1.2-4.4,1.8c0.2-0.3,0.3-0.6,0.5-0.8c2.6-0.8,5.1-1.6,7.7-2.3c0.2-0.1,0.2-0.4-0.1-0.4
		c-2.5,0.6-4.9,1.3-7.3,2.1c0.3-0.5,0.6-1,1-1.4c0.1-0.1,0-0.2-0.1-0.3c0.4-0.1,0.9-0.2,1.3-0.4c0.8-0.2,1.6-0.4,2.3-0.7
		c0.7-0.2-4.4,0.9-8.1,1.9c0.1-0.2,0.2-0.3,0.3-0.5c4.1-1.4,13.7-5.1,13.3-5l-0.4,0c-0.1,0-31.4,10.2-33.1,10.7
		c-0.4,0.1-28.4,9.6-33.8,11.5c-0.7,0.2-17.6,5.2-17.8,5.2c-4.1,1.1-12.2,3.9-12.3,4c-7.6,2.3-6.4,1.4-7.9,1.2
		c-0.9-1.5-1.5-3.1-2.5-4.5c-0.7-1-1.4-2-2.1-3"/>
</g>
<path style="fill:none;stroke:#1A1A1A;stroke-width:2.0926;stroke-linecap:round;stroke-linejoin:round;stroke-miterlimit:10;" d="
	M39.8,91.9c-0.2-0.9-0.9-1.6-1.3-2.4c-0.5-0.9-0.8-1.8-1.1-2.7c-0.4-0.9-0.9-1.8-1.7-2.4"/>
<path style="fill:none;stroke:#1A1A1A;stroke-width:2.0926;stroke-linecap:round;stroke-linejoin:round;stroke-miterlimit:10;" d="
	M35.2,100.1c0.1-1.6,0-3.3-0.4-4.9c-0.2-0.8-0.5-1.6-0.7-2.4c-0.4-1.5-0.5-3-0.7-4.5c0-0.2-0.1-0.4-0.2-0.5
	c-0.1,1.2-0.3,2.4-0.1,3.6c0.1,0.6,0.3,1.2,0.4,1.7c0.5,2.1,0.3,4.3,0.9,6.4c0.3-2.2,0.3-4.5-0.1-6.7"/>
<path style="fill:none;stroke:#1A1A1A;stroke-width:2.0926;stroke-linecap:round;stroke-linejoin:round;stroke-miterlimit:10;" d="
	M53.3,121.4c0.7,1.7,2.2,2.8,3,4.5c0.4,0.8,0.6,1.6,0.8,2.5c0.3,0.8,0.7,1.6,1.4,2.1"/>
<path style="fill:none;stroke:#1A1A1A;stroke-width:2.0926;stroke-linecap:round;stroke-linejoin:round;stroke-miterlimit:10;" d="
	M50.4,115.1c0.6,1.4,1.3,2.8,2.1,4.1"/>
<path style="fill:none;stroke:#1A1A1A;stroke-width:2.0926;stroke-linecap:round;stroke-linejoin:round;stroke-miterlimit:10;" d="
	M47.9,105.6c1.2,2.2,2.4,4.5,3.5,6.7"/>
<path style="fill:none;stroke:#1A1A1A;stroke-width:2.0926;stroke-linecap:round;stroke-linejoin:round;stroke-miterlimit:10;" d="
	M61.7,120.8c2.6,3.5,5.3,7.1,7.9,10.6"/>
<path style="fill:none;stroke:#1A1A1A;stroke-width:2.0926;stroke-linecap:round;stroke-linejoin:round;stroke-miterlimit:10;" d="
	M64.3,121.3c1.9,3.5,4,7,6.1,10.4"/>
<path style="fill:none;stroke:#1A1A1A;stroke-width:2.0926;stroke-linecap:round;stroke-linejoin:round;stroke-miterlimit:10;" d="
	M58.8,133.2c1.8,2.6,3.7,5.1,5.7,7.5"/>
<path style="fill:none;stroke:#1A1A1A;stroke-width:2.0926;stroke-linecap:round;stroke-linejoin:round;stroke-miterlimit:10;" d="
	M63.7,141.6c1.8,3.1,3.7,6.2,5.8,9.2"/>
<path style="fill:none;stroke:#1A1A1A;stroke-width:2.0926;stroke-linecap:round;stroke-linejoin:round;stroke-miterlimit:10;" d="
	M65.2,136.2c2.8,4.2,5.9,8.1,7.8,12.8"/>
<path style="fill:none;stroke:#1A1A1A;stroke-width:2.0926;stroke-linecap:round;stroke-linejoin:round;stroke-miterlimit:10;" d="
	M74.7,140.2c1,2,2.1,3.9,3,5.9"/>
<path style="fill:none;stroke:#1A1A1A;stroke-width:2.0926;stroke-linecap:round;stroke-linejoin:round;stroke-miterlimit:10;" d="
	M19.4,69.2c-0.2,1-0.5,1.9-0.9,2.9c0.1-2.1,0.9-4,1.1-6.1c0.1,3.5,0.8,6.8,0.8,10.4c0.3-2,1.4-3.7,1.6-5.6c0,1.8,0.2,5.2,0.2,7"/>
<path style="fill:none;stroke:#1A1A1A;stroke-width:2.0926;stroke-linecap:round;stroke-linejoin:round;stroke-miterlimit:10;" d="
	M26.6,79.5c-0.1,1.4-0.2,2.9-0.3,4.3c-0.1,1.2,1.5,1.5,1.6,2.7"/>
<path style="fill:none;stroke:#1A1A1A;stroke-width:2.0926;stroke-linecap:round;stroke-linejoin:round;stroke-miterlimit:10;" d="
	M34.1,95.3c-0.5-0.8-0.7-1.8-0.5-2.7"/>
<line style="fill:none;stroke:#1A1A1A;stroke-width:2;stroke-linecap:round;stroke-linejoin:round;stroke-miterlimit:10;" x1="36" y1="94" x2="36" y2="102"/>
<line style="fill:none;stroke:#1A1A1A;stroke-width:2;stroke-linecap:round;stroke-linejoin:round;stroke-miterlimit:10;" x1="38" y1="96" x2="38" y2="106"/>
<path style="fill:none;stroke:#1A1A1A;stroke-width:2.0926;stroke-linecap:round;stroke-linejoin:round;stroke-miterlimit:10;" d="
	M40,99.1c-0.1,2.7,0.6,4.3,1.5,6.7c1.1,3.4,1.8,7.2,2.4,10.7"/>
<path style="fill:none;stroke:#1A1A1A;stroke-width:2.0926;stroke-linecap:round;stroke-linejoin:round;stroke-miterlimit:10;" d="
	M46.7,119.2c-0.1-1.4-0.2-2.9-0.3-4.3c0,3.5,1.1,5.7,1.8,9.1"/>
<path style="fill:none;stroke:#1A1A1A;stroke-width:2.0926;stroke-linecap:round;stroke-linejoin:round;stroke-miterlimit:10;" d="
	M53.7,126.2c-0.4,1.4-1.8,1.3-1.4,2.7c-0.3-2.2-0.5-4.5-0.8-6.7"/>
<path style="fill:none;stroke:#1A1A1A;stroke-width:2.0926;stroke-linecap:round;stroke-linejoin:round;stroke-miterlimit:10;" d="
	M56.8,133.4c0.2,1.3,0.4,2.7,0.6,4c0.3,2.1,1.2,3,1.8,5.1"/>
<path style="fill:none;stroke:#1A1A1A;stroke-width:2.0926;stroke-linecap:round;stroke-linejoin:round;stroke-miterlimit:10;" d="
	M60.6,140.1c-0.4,1.6-0.4,3.2,0,4.8c0.3,1.2,1.3,1.5,1.8,2.7c0.2-0.2,0.4-0.4,0.6-0.5c-0.1,1.4,0.8,1.7,1,3c0,0.2,0.1,0.4,0.3,0.5
	c0.2,0.1,0.4-0.2,0.2-0.3c-0.1,2.7,1.4,4.6,2.2,7.2"/>
<path style="fill:none;stroke:#1A1A1A;stroke-width:2.0926;stroke-linecap:round;stroke-linejoin:round;stroke-miterlimit:10;" d="
	M12.1,53.2c0,2.5-0.5,6.3-0.5,8.8c0.4-1.7,2.2-3.4,2.1-5.1c-0.1,2.4-0.2,4.8-0.3,7.2"/>
<path style="fill:none;stroke:#1A1A1A;stroke-width:2.0926;stroke-linecap:round;stroke-linejoin:round;stroke-miterlimit:10;" d="
	M13.9,50.1c0.6,1.4,1.3,2.7,2.1,3.9"/>
<path style="fill:none;stroke:#1A1A1A;stroke-width:2.0926;stroke-linecap:round;stroke-linejoin:round;stroke-miterlimit:10;" d="
	M16.3,54.4c1.9,1.8,3.5,4,4.7,6.3"/>
<path style="fill:none;stroke:#1A1A1A;stroke-width:2.0926;stroke-linecap:round;stroke-linejoin:round;stroke-miterlimit:10;" d="
	M19.1,58.7c1.4,2.8,3.2,5.6,5.2,8.1"/>
<path style="fill:none;stroke:#1A1A1A;stroke-width:2.0926;stroke-linecap:round;stroke-linejoin:round;stroke-miterlimit:10;" d="
	M15.7,49.7c0.9,1.5,1.8,3,2.8,4.4"/>
<path style="fill:none;stroke:#1A1A1A;stroke-width:2.0926;stroke-linecap:round;stroke-linejoin:round;stroke-miterlimit:10;" d="
	M19.4,50.1c1.1,2.7,2.6,5.2,4.3,7.6"/>
<path style="fill:none;stroke:#1A1A1A;stroke-width:2.0926;stroke-linecap:round;stroke-linejoin:round;stroke-miterlimit:10;" d="
	M24.6,61.5c2,4.2,4.1,8.4,6.2,12.6"/>
<path style="fill:none;stroke:#1A1A1A;stroke-width:2.0926;stroke-linecap:round;stroke-linejoin:round;stroke-miterlimit:10;" d="
	M22.4,51.8c1,2.1,2.1,4.2,3.2,6.2"/>
<path style="fill:none;stroke:#1A1A1A;stroke-width:2.0926;stroke-linecap:round;stroke-linejoin:round;stroke-miterlimit:10;" d="
	M26.7,54.4c1.7,3.9,3.6,7.6,5.7,11.3"/>
<path style="fill:none;stroke:#1A1A1A;stroke-width:2.0926;stroke-linecap:round;stroke-linejoin:round;stroke-miterlimit:10;" d="
	M34.4,68.3c-0.1-0.1-0.3-0.2-0.4-0.2c3.2,5.8,6.7,11.5,10.4,17"/>
<path style="fill:none;" d="M76.6,163.7c2.7-0.7,5.3-1.4,7.9-2.3c2.5-0.9,5-1.9,7.6-2.7c3-0.9,6.2-1.5,9.1-2.7
	c1.1-0.5,2.2-1,3.3-1.4c1.2-0.5,2.5-0.8,3.8-1.1c0.8-0.2,1.6-0.4,2.4-0.6"/>
<path style="fill:none;stroke:#1A1A1A;stroke-width:0.2616;stroke-linecap:round;stroke-linejoin:round;stroke-miterlimit:10;" d="
	M80.5,162.9c1.1-0.3,2.1-0.8,3.1-1.2c2.2-1,4.6-1.8,6.9-2.5c3.8-1.3,7.6-2.5,11.3-3.8"/>
<path style="fill:none;stroke:#1A1A1A;stroke-width:0.2616;stroke-linecap:round;stroke-linejoin:round;stroke-miterlimit:10;" d="
	M95.8,159.6c-0.1,0-0.2,0-0.3,0"/>
<path style="fill:none;stroke:#1A1A1A;stroke-width:0.2616;stroke-linecap:round;stroke-linejoin:round;stroke-miterlimit:10;" d="
	M99.5,157.1c3.7-1.3,7.4-2.2,11.3-2.8"/>
<path style="fill:none;stroke:#1A1A1A;stroke-width:0.2616;stroke-linecap:round;stroke-linejoin:round;stroke-miterlimit:10;" d="
	M114,152.1C114,152.2,114.1,152.2,114,152.1c0.1,0,0,0.3,0.1,0.4s0.1,0,0.2,0c5.1-1.5,10.2-2.9,15.2-4.4"/>
<path style="fill:none;stroke:#1A1A1A;stroke-width:0.2616;stroke-linecap:round;stroke-linejoin:round;stroke-miterlimit:10;" d="
	M131,147.6c5.9-1.6,11.9-3.3,17.8-4.9"/>
<path style="fill:none;stroke:#1A1A1A;stroke-width:0.2616;stroke-linecap:round;stroke-linejoin:round;stroke-miterlimit:10;" d="
	M150.1,142.3c3.8-1,7.5-2.2,11.1-3.5"/>
<path style="fill:none;stroke:#1A1A1A;stroke-width:0.2616;stroke-linecap:round;stroke-linejoin:round;stroke-miterlimit:10;" d="
	M162.6,138.3c3.9-1.7,7.7-3.4,11.6-5.1"/>
<path style="fill:none;stroke:#1A1A1A;stroke-width:0.2616;stroke-linecap:round;stroke-linejoin:round;stroke-miterlimit:10;" d="
	M177.1,132.3c4.7-1.4,9.4-2.8,14.1-4.2"/>
<path style="fill:none;stroke:#1A1A1A;stroke-width:0.2616;stroke-linecap:round;stroke-linejoin:round;stroke-miterlimit:10;" d="
	M172.4,129.9c4.4-1.2,8.8-2.5,13.1-4"/>
<path style="fill:none;stroke:#1A1A1A;stroke-width:0.2616;stroke-linecap:round;stroke-linejoin:round;stroke-miterlimit:10;" d="
	M159.4,133.7C159.5,133.6,159.3,133.6,159.4,133.7c-0.1,0.1,0,0.1,0.1,0.1c2.7-0.5,5.4-1.3,8-2.2"/>
<path style="fill:none;stroke:#1A1A1A;stroke-width:0.2616;stroke-linecap:round;stroke-linejoin:round;stroke-miterlimit:10;" d="
	M142.3,138.7c3.8-0.8,7.6-1.7,11.4-2.7"/>
<path style="fill:none;stroke:#1A1A1A;stroke-width:0.2616;stroke-linecap:round;stroke-linejoin:round;stroke-miterlimit:10;" d="
	M71.3,165.1c1.4-0.2,2.8-0.5,4.1-0.9"/>
<path style="fill:none;stroke:#1A1A1A;stroke-width:0.2616;stroke-linecap:round;stroke-linejoin:round;stroke-miterlimit:10;" d="
	M76.6,163.4c-0.1,0-0.3,0-0.4,0c10.6-2.8,21.2-5.6,31.8-8.4"/>
<path style="fill:none;stroke:#1A1A1A;stroke-width:0.2616;stroke-linecap:round;stroke-linejoin:round;stroke-miterlimit:10;" d="
	M77.1,160c-0.1,0-0.2,0-0.3,0c9.1-3.1,18.3-6,27.6-8.6"/>
<path style="fill:none;stroke:#1A1A1A;stroke-width:0.2616;stroke-linecap:round;stroke-linejoin:round;stroke-miterlimit:10;" d="
	M73.9,162.3c-0.1,0-0.2,0-0.3,0c9.1-3.1,18.3-6,27.6-8.6"/>
<path style="fill:none;stroke:#1A1A1A;stroke-width:0.2616;stroke-linecap:round;stroke-linejoin:round;stroke-miterlimit:10;" d="
	M74.1,166c-0.1,0-0.1-0.3-0.2-0.3c9.1-3.1,18.3-6,27.6-8.6"/>
<g>
	<path style="fill:#1A1A1A;" d="M110.3,89.7c-8.7,2.5-18.3,3.1-27,1.6l-3.9,1.1c-5.3,1.5-12.1-1-15.1-5.5l-6.1-9.1
		c-3.1-4.6-1.1-9.4,4.3-10.7l4-1c4.4-5,11.9-8.9,21-11c8.9-2.1,18.1-2.2,26.2-0.4l3.4-0.8c4.6-1.1,10.5,1.4,13.2,5.5l5.4,8.2
		c2.7,4.1,1.3,8.5-3.2,9.8l-3.4,0.9C125.5,83.2,118.8,87.2,110.3,89.7z M63.1,67.9c-4.9,1.2-6.7,5.6-3.9,9.7l6,9.1
		c2.8,4.1,8.9,6.4,13.7,5l4.1-1.2l0.1,0c8.5,1.5,18,0.9,26.6-1.6c8.4-2.4,15-6.4,18.6-11.2l0.1-0.1l3.6-1c4.1-1.1,5.4-5.1,2.9-8.9
		l-5.4-8.3c-2.5-3.8-7.8-6-12-5l-3.7,0.9l-0.1,0c-7.9-1.8-17.1-1.6-25.8,0.4c-9,2.1-16.3,6-20.6,10.9l-0.1,0.1L63.1,67.9z"/>
</g>
<g>
	<path style="display:none;fill:none;stroke:#1A1A1A;stroke-width:0.2616;stroke-miterlimit:10;" d="M109.5,88.4
		c-8.5,2.5-17.9,3-26.3,1.5l-0.3-0.1l-4.3,1.2c-4.4,1.2-10.1-0.8-12.7-4.7l-6-9c-2.6-3.8-0.9-7.9,3.6-9l4.4-1.1l0.2-0.2
		c4.2-4.8,11.5-8.7,20.3-10.8c8.6-2,17.7-2.2,25.5-0.5l0.3,0.1l3.8-0.9c3.9-0.9,8.8,1.1,11.1,4.6l5.4,8.3c2.3,3.5,1.1,7.2-2.7,8.2
		l-3.7,1l-0.1,0.2C124.3,82.1,117.8,86,109.5,88.4z"/>
	<path style="fill:none;stroke:#1A1A1A;stroke-width:0.5232;stroke-miterlimit:10;" d="M63.7,68.8c-4.3,1.1-5.8,4.9-3.4,8.5l6,9
		c2.4,3.6,7.8,5.6,12,4.4l4.4-1.2l0.5,0.1c8.3,1.5,17.6,0.9,26-1.5c8.3-2.4,14.7-6.3,18.3-10.9l0.2-0.3l3.8-1.1
		c3.6-1,4.7-4.5,2.6-7.8l-5.4-8.3c-2.2-3.3-6.9-5.3-10.5-4.4l-3.9,1l-0.4-0.1c-7.7-1.7-16.7-1.6-25.2,0.5c-8.8,2.1-16,5.9-20.1,10.7
		l-0.2,0.3L63.7,68.8z"/>
</g>
<line style="fill:none;stroke:#1A1A1A;stroke-width:0.5232;stroke-linecap:round;stroke-linejoin:round;stroke-miterlimit:10;" x1="71.6" y1="83" x2="127.6" y2="67.8"/>
<g>
	<g>
		<g>
			<path style="fill:#1A1A1A;" d="M76,84.7L76,84.7c-0.2,0-0.3-0.1-0.4-0.2c-0.1-0.1-0.2-0.2-0.2-0.4c0-0.3,0-0.6,0-1
				c0-0.3,0-0.6-0.1-0.9c0-0.2-0.1-0.5-0.1-0.8c-0.1-0.3-0.1-0.6-0.2-1s-0.2-0.6-0.3-0.9l-0.2-0.7l-0.2-0.5c-0.3,0.1-0.7,0.2-1,0.3
				l0,0l-0.1,0c-0.1,0-0.2,0-0.3-0.1c-0.1-0.1-0.2-0.1-0.2-0.3c0-0.1-0.1-0.2,0-0.4c0-0.1,0.1-0.2,0.2-0.3c0.3-0.1,0.5-0.2,0.7-0.3
				c0.1,0,0.3-0.1,0.4-0.1c-0.2-0.6-0.4-1.2-0.5-1.8c-0.2-0.7-0.3-1.4-0.3-2l0-1.3c0-0.1,0-0.3,0-0.4c0-0.1,0-0.2,0.1-0.3
				c0-0.1,0.2-0.9,0.3-1.2c0-0.1,0.1-0.3,0.3-0.3c0.1,0,0.2-0.1,0.3-0.1c0.2,0,0.3,0.1,0.4,0.2c0.1,0.1,0.2,0.2,0.2,0.4
				c0,0.3-0.1,0.5-0.1,0.8c0,0.2,0,0.5-0.1,0.7c0,0.4,0,0.8,0.1,1.2c0.1,0.4,0.2,0.8,0.2,1.2c0.1,0.4,0.2,0.8,0.3,1.2
				c0.1,0.3,0.2,0.6,0.3,1c1.7-1,2.9-2.2,3.7-3.7c0-0.6,0-1.2,0.1-1.8c0-0.6,0.1-1.2,0.2-1.8c0-0.2,0.1-0.4,0.2-0.6
				c0.1-0.2,0.2-0.5,0.2-0.5l0-0.1c0.1-0.2,0.2-0.3,0.4-0.4c0.1,0,0.2-0.1,0.3-0.1l0.1,0c0.1,0,0.3,0.1,0.4,0.2
				c0.1,0.1,0.2,0.2,0.3,0.4l0.1,1c0,0.4,0,0.7,0,1.1c-0.2,1.1-0.4,2.1-0.9,3c-0.1,1.7,0,3.4,0.3,5.2c0.3,1.9,0.7,3.7,1.3,5.5
				c0,0.2,0,0.3-0.1,0.5c-0.1,0.1-0.2,0.2-0.3,0.2c0,0,0,0-0.1,0c-0.1,0-0.2,0-0.3-0.1c-0.1-0.1-0.2-0.2-0.3-0.3
				c-0.6-1.7-1.1-3.3-1.4-4.9c-0.3-1.3-0.4-2.7-0.5-4c-0.4,0.4-0.8,0.8-1.3,1.1c-0.6,0.4-1.3,0.8-2.1,1.2c0.1,0.4,0.2,0.8,0.3,1.2
				c0.1,0.5,0.2,1,0.3,1.5c0.1,0.4,0.1,0.8,0.1,1.1c0,0.3,0,0.6,0,0.8c0,0.3,0,0.6,0,0.8c0,0.3-0.1,0.6-0.1,1.1
				c-0.1,0.2-0.2,0.3-0.3,0.4C76.2,84.7,76.1,84.7,76,84.7L76,84.7z"/>
		</g>
		<g>
			<path style="fill:#1A1A1A;" d="M85,79.4c-0.2,0-0.4,0-0.5-0.1c-0.1-0.1-0.3-0.1-0.4-0.2c-0.1,0-0.3-0.1-0.4-0.2
				c-0.1-0.1-0.2-0.2-0.3-0.3c-0.1-0.1-0.2-0.2-0.2-0.3S83,78.2,83,78.1c-0.2-0.4-0.3-0.8-0.5-1.3c-0.2-0.5-0.3-1-0.4-1.5
				c-0.1-0.5-0.1-1-0.1-1.5c0-0.5,0.1-0.9,0.2-1.3c0.1-0.2,0.2-0.2,0.3-0.3l0.1,0c0.1,0,0.2,0,0.2,0c0.1,0.1,0.2,0.1,0.2,0.2
				c0.1,0.1,0.1,0.2,0,0.4c-0.1,0.2-0.1,0.5-0.1,0.8c0,0.3,0,0.7,0.1,1c0.1,0.4,0.2,0.7,0.3,1.1c0.1,0.4,0.2,0.7,0.3,0.9
				c0,0.1,0.1,0.2,0.1,0.4c0.1,0.2,0.2,0.3,0.3,0.5c0.1,0.2,0.2,0.3,0.3,0.4c0.1,0.1,0.1,0.1,0.2,0.1c0.3,0,0.5-0.1,0.6-0.3
				c0.2-0.2,0.3-0.4,0.4-0.6c0.1-0.2,0.2-0.5,0.4-0.9c0.1-0.4,0.2-0.8,0.3-1.2c-0.1-0.2-0.1-0.4-0.2-0.6c-0.1-0.2-0.1-0.4-0.1-0.6
				L86,73.4c0-0.2-0.1-0.3-0.1-0.4c0-0.1,0-0.3,0-0.4c0-0.2,0-0.4,0.1-0.5c0.1-0.2,0.2-0.3,0.3-0.5c0.1-0.1,0.3-0.1,0.4-0.1
				c0.1,0,0.1,0,0.2,0c0.2,0,0.3,0.1,0.3,0.1c0.1,0,0.1,0.1,0.2,0.2c0.1,0.2,0.2,0.5,0.3,0.7C88,72.6,88,72.8,88,73
				c0,0.2,0,0.4,0,0.6c0,0.2,0,0.4,0,0.6c0,0.4-0.1,0.8-0.1,1.2c0.1,0.2,0.1,0.4,0.2,0.6c0,0,0.1,0.1,0.1,0.1c0,0,0.1,0.1,0.1,0.1
				c0.1,0,0.3-0.1,0.4-0.2c0.2-0.2,0.3-0.4,0.5-0.6c0.1-0.2,0.2-0.5,0.3-0.8c0.1-0.3,0.1-0.5,0.1-0.6c0-0.1,0-0.1,0-0.2
				c0-0.1,0-0.2-0.1-0.3c0-0.3,0.2-0.5,0.5-0.5c0.2,0,0.4,0.1,0.5,0.3c0.1,0.2,0.1,0.4,0.1,0.5c0,0.1,0,0.3,0.1,0.4
				c0,0.1,0,0.3,0,0.4c0,0.1-0.1,0.3-0.1,0.5c-0.1,0.2-0.1,0.4-0.2,0.5c0,0.1-0.1,0.2-0.1,0.3c0,0.1-0.1,0.2-0.2,0.3
				c-0.1,0.1-0.2,0.3-0.3,0.5c-0.1,0.1-0.2,0.2-0.3,0.4c-0.1,0.1-0.3,0.2-0.5,0.3c-0.2,0.1-0.4,0.1-0.6,0.1c-0.2,0-0.5-0.1-0.7-0.2
				c-0.1-0.1-0.2-0.2-0.3-0.3c0,0.1-0.1,0.2-0.1,0.3c-0.1,0.2-0.2,0.4-0.3,0.6c-0.1,0.1-0.2,0.3-0.3,0.5c-0.1,0.2-0.3,0.3-0.5,0.5
				c-0.2,0.2-0.4,0.3-0.6,0.4C85.5,79.4,85.3,79.4,85,79.4L85,79.4z"/>
		</g>
		<g>
			<path style="fill:#1A1A1A;" d="M93.2,81.2c-0.1,0-0.2,0-0.3-0.1l-0.1-0.1c-0.2-0.1-0.3-0.2-0.4-0.4l-0.2-0.3l-0.3-0.7
				c-0.1-0.3-0.2-0.5-0.3-0.6c-0.2-0.6-0.4-1.2-0.6-1.7l-0.5-1.7c0-0.1-0.1-0.2-0.2-0.4c-0.1-0.1-0.1-0.3-0.2-0.4
				c-0.1-0.2-0.2-0.4-0.3-0.6c-0.1-0.1-0.1-0.3-0.2-0.4c-0.2,0-0.3,0.1-0.5,0.1c-0.3,0-0.5,0-0.7,0c-0.2,0-0.5,0-0.7-0.1
				c-0.2,0-0.4-0.1-0.6-0.3l0,0l0,0c-0.1-0.1-0.1-0.2-0.1-0.3c0-0.1,0.1-0.2,0.2-0.3c0.1-0.1,0.2-0.1,0.3-0.1c0.1,0,0.2,0,0.3,0.1
				c0,0,0,0,0.1,0c0.2,0,0.3,0,0.5,0c0.2,0,0.4,0,0.6-0.1c0.1,0,0.2,0,0.3,0c-0.3-0.8-0.5-1.5-0.8-2.2c-0.3-0.8-0.5-1.6-0.6-2.4
				c0-0.3,0.2-0.5,0.5-0.5c0.2,0,0.4,0.1,0.5,0.3c0.1,0.5,0.2,0.9,0.4,1.3c0-0.7,0-1.3,0.1-1.9c0.1-0.2,0.1-0.5,0.3-0.8
				c0.1-0.3,0.3-0.6,0.5-0.9c0.2-0.3,0.4-0.5,0.7-0.7c0.3-0.2,0.6-0.3,1-0.3c0.1,0,0.3,0,0.4,0c0.4,0,0.8,0,1.2,0.1
				c0.5,0.1,1,0.3,1.4,0.5c0.4,0.2,0.8,0.6,1.2,0.9c0.3,0.4,0.7,0.8,0.9,1.2c0.1,0.1,0.2,0.3,0.2,0.5c0.1,0.2,0.1,0.3,0.2,0.5
				c0,0.2,0.1,0.4,0,0.5c0,0.2,0,0.4-0.1,0.5c-0.1,0.2-0.2,0.3-0.2,0.5c-0.1,0.2-0.2,0.4-0.4,0.6c-0.4,0.4-0.8,0.7-1.2,1
				c-0.4,0.3-0.8,0.6-1.3,0.8c-0.4,0.2-0.9,0.5-1.4,0.6c-0.4,0.2-0.9,0.3-1.4,0.5c0.1,0.5,0.2,0.9,0.4,1.4c0.2,0.6,0.3,1.1,0.5,1.6
				c0.3,0.6,0.6,1.3,0.9,2c0.3,0.7,0.5,1.4,0.7,2.1c0.1,0.4-0.1,0.6-0.3,0.7C93.5,81.2,93.3,81.2,93.2,81.2z M92.6,65.8
				c-0.2,0-0.4,0-0.6,0.1c-0.2,0.1-0.4,0.2-0.6,0.4c-0.1,0.2-0.3,0.4-0.3,0.6c-0.1,0.2-0.1,0.5-0.2,0.7c-0.1,0.7-0.1,1.5,0,2.3
				c0.1,0.8,0.2,1.5,0.4,2.3c0.4-0.1,0.8-0.3,1.3-0.5c0.6-0.2,1.1-0.5,1.6-0.8c0.5-0.3,0.9-0.6,1.3-1c0.3-0.3,0.5-0.7,0.6-1.1
				c0.1-0.3,0-0.6-0.2-1c-0.2-0.4-0.4-0.7-0.7-1c-0.3-0.3-0.7-0.6-1.1-0.8c-0.4-0.2-0.8-0.3-1.2-0.4C92.7,65.8,92.6,65.8,92.6,65.8z
				"/>
		</g>
		<g>
			<path style="fill:#1A1A1A;" d="M101.3,74.6c-0.3,0-0.5-0.1-0.8-0.3c-0.2-0.2-0.4-0.4-0.6-0.6c-0.2-0.2-0.3-0.5-0.4-0.8
				c-0.1-0.3-0.2-0.6-0.3-0.8c-0.1-0.3-0.2-0.5-0.2-0.7c0-0.2-0.1-0.4-0.1-0.5l-0.1-0.6c-0.1-0.2-0.1-0.4-0.1-0.6l-0.1-0.6
				c0-0.2,0-0.4,0.1-0.7c0.1-0.2,0.2-0.2,0.3-0.3l0.1,0c0.1,0,0.1,0,0.2,0c0.1,0,0.2,0.1,0.3,0.2c0.1,0.1,0.1,0.2,0.1,0.4
				c0,0.1,0,0.1,0,0.2c0,0.1,0.1,0.2,0.1,0.4c0,0.1,0.1,0.3,0.2,0.4c0.1,0.1,0.1,0.3,0.1,0.4c0.1,0.3,0.2,0.5,0.3,0.8
				c0.1,0.3,0.2,0.5,0.3,0.8c0.1,0.3,0.2,0.5,0.3,0.8c0.1,0.2,0.2,0.4,0.3,0.6c0,0,0.1-0.1,0.1-0.1c0.1-0.1,0.2-0.3,0.3-0.5
				c0.1-0.2,0.1-0.4,0.2-0.7l0.2-0.7c0.1-0.2,0.1-0.5,0.2-0.7c0.1-0.2,0.2-0.4,0.4-0.6c0.1-0.1,0.2-0.1,0.3-0.1
				c0.2,0,0.3,0.1,0.4,0.1c0.1,0.1,0.2,0.2,0.2,0.3c0.1,0.1,0,0.3-0.1,0.4c-0.1,0.1-0.1,0.2-0.1,0.4c0,0.2-0.1,0.4-0.1,0.7l-0.1,0.8
				c0,0.3-0.1,0.6-0.2,0.8c-0.1,0.3-0.2,0.5-0.3,0.7c-0.2,0.2-0.4,0.4-0.6,0.5c-0.1,0-0.2,0.1-0.3,0.1
				C101.6,74.6,101.5,74.6,101.3,74.6L101.3,74.6z M98.7,67.8c-0.1,0-0.2,0-0.3-0.1c-0.1-0.1-0.2-0.1-0.2-0.2
				c-0.1-0.1-0.1-0.2-0.1-0.3c0-0.1,0-0.2,0-0.3c0-0.1,0.1-0.2,0.2-0.2c0.1-0.1,0.2-0.1,0.2-0.1l0,0l0.1,0c0.1,0,0.2,0,0.2,0
				c0,0,0.1,0,0.1,0c0.2,0,0.3,0.1,0.4,0.1c0.1,0.1,0.2,0.2,0.2,0.3c0,0.1,0,0.2,0,0.3c0,0.1,0,0.2-0.1,0.2c0,0.1-0.1,0.2-0.4,0.3
				c-0.1,0-0.1,0-0.2,0h-0.1C98.8,67.8,98.8,67.8,98.7,67.8L98.7,67.8z"/>
		</g>
		<g>
			<path style="fill:#1A1A1A;" d="M104.7,73.9c-0.1,0-0.1,0.1-0.2,0.1c-0.1,0-0.1,0-0.2,0c-0.1,0-0.1,0-0.2,0
				c-0.1,0-0.3-0.1-0.4-0.2c-0.1-0.1-0.2-0.2-0.3-0.4c-0.3-0.8-0.6-1.5-0.8-2.4c-0.3-0.8-0.5-1.6-0.7-2.5c-0.2-0.8-0.4-1.6-0.6-2.4
				c-0.2-0.8-0.3-1.5-0.3-2.1c0-0.2,0.1-0.3,0.2-0.4c0.1,0,0.2-0.1,0.3-0.1c0.2,0,0.3,0.1,0.3,0.1c0.1,0.1,0.2,0.2,0.2,0.3
				c0.1,1,0.3,2,0.6,3c0.2,0.7,0.4,1.5,0.7,2.3c0-0.1,0-0.2,0.1-0.2c0.1-0.4,0.2-0.8,0.3-1.1c0-0.1,0.1-0.2,0.1-0.4
				c0.1-0.1,0.1-0.3,0.2-0.4c0.1-0.1,0.2-0.3,0.3-0.4c0.1-0.1,0.3-0.2,0.5-0.2c0.1,0,0.1,0,0.2,0c0.1,0,0.2,0,0.3,0.1
				c0.1,0.1,0.3,0.1,0.4,0.3c0.1,0.1,0.2,0.2,0.2,0.4c0,0.1,0.1,0.3,0,0.4c0,0.2-0.1,0.3-0.2,0.5l-0.2,0.5c-0.1,0.2-0.1,0.3-0.2,0.5
				c0,0.1,0,0.3,0,0.4s0.1,0.3,0.3,0.4c0.1,0.1,0.4,0.3,0.7,0.4c0.2,0.1,0.3,0.1,0.6,0.2c0.2,0.1,0.4,0.1,0.6,0.2
				c0.5,0.1,0.8,0.2,1.2,0.2l0.1,0c0.3,0,0.6-0.1,0.7-0.2c0.2-0.1,0.3-0.3,0.4-0.5c0.1-0.2,0.2-0.5,0.2-0.7c0.1-0.3,0.1-0.6,0.1-0.9
				c0-0.3,0.1-0.6,0.1-0.9c0.1-0.2,0.2-0.3,0.3-0.3l0.1,0c0.1,0,0.1,0,0.2,0c0.1,0,0.2,0.1,0.3,0.2c0.1,0.1,0.1,0.2,0.1,0.4
				c0,0.3-0.1,0.6-0.1,0.9c0,0.3-0.1,0.7-0.1,1c0,0.3-0.1,0.6-0.2,0.9c-0.1,0.3-0.3,0.6-0.6,0.8c-0.3,0.2-0.6,0.4-1,0.5
				c-0.2,0-0.4,0.1-0.7,0.1c-0.2,0-0.5,0-0.8-0.1c-0.2,0-0.5-0.1-0.7-0.1c-0.2-0.1-0.5-0.1-0.7-0.2c-0.5-0.2-1-0.4-1.4-0.7
				c-0.2-0.1-0.4-0.3-0.6-0.5l-0.1,0.4c0,0,0,0.1,0,0.4c0.1,0.2,0.1,0.5,0.2,0.7c0.1,0.2,0.1,0.5,0.1,0.7c0,0.2,0,0.3,0,0.5l0,0
				l0,0.2l-0.2,0.5L104.7,73.9z"/>
		</g>
		<g>
			<path style="fill:#1A1A1A;" d="M114,70.6l-1.2-0.2c-0.3-0.1-0.7-0.2-1-0.4c-0.3-0.2-0.6-0.5-0.8-0.7c-0.2-0.3-0.4-0.5-0.6-0.8
				s-0.3-0.5-0.3-0.8c-0.1-0.3-0.1-0.6-0.1-0.9c0-0.3,0.1-0.6,0.2-0.9c0.1-0.3,0.3-0.6,0.5-0.8c0.2-0.3,0.5-0.5,0.8-0.6
				c0.1-0.1,0.2-0.1,0.4-0.2l0.4-0.1c0.1,0,0.1,0,0.2,0c0.1,0,0.1,0,0.2,0c0.1,0,0.2,0.1,0.3,0.2c0.1,0.1,0.1,0.2,0.1,0.3
				c0,0,0,0,0,0.1c0,0,0,0,0,0c0.2,0,0.3,0,0.5,0c0.1,0,0.1,0,0.2,0c0.2,0,0.3,0,0.5,0.1c0.2,0.1,0.4,0.2,0.6,0.4
				c0.2,0.2,0.3,0.3,0.5,0.5c0.1,0.2,0.3,0.4,0.4,0.6c0.1,0.2,0.2,0.4,0.2,0.5c0.1,0.4,0.2,0.8,0.2,1.1c0.1,0.4,0.1,0.8,0,1.1
				c-0.1,0.4-0.2,0.7-0.5,1c-0.2,0.3-0.6,0.5-1.1,0.7c-0.1,0-0.1,0-0.2,0L114,70.6z M112.3,65.1c-0.1,0-0.2,0.1-0.2,0.1
				c-0.1,0-0.1,0.1-0.2,0.2c-0.1,0.1-0.1,0.2-0.2,0.3c-0.1,0.2-0.2,0.4-0.3,0.6c-0.1,0.2-0.1,0.4-0.1,0.7c0,0.2,0,0.4,0.1,0.6
				c0.1,0.2,0.2,0.4,0.3,0.6c0.1,0.2,0.3,0.4,0.5,0.6c0.2,0.2,0.5,0.3,0.8,0.4c0.1,0,0.3,0.1,0.4,0.1c0.1,0,0.1,0,0.2,0
				c0.2,0,0.3,0,0.4-0.1c0.1-0.1,0.2-0.1,0.2-0.2c0.1-0.1,0.1-0.2,0.2-0.3c0-0.1,0.1-0.2,0.1-0.3c0.1-0.2,0.1-0.4,0.1-0.6
				c0-0.2,0-0.4,0-0.6c0-0.2-0.1-0.4-0.1-0.7c-0.1-0.2-0.2-0.4-0.3-0.6c0-0.1-0.1-0.1-0.2-0.2c-0.1-0.1-0.2-0.1-0.2-0.2l-0.3,0
				c-0.1,0-0.2,0-0.4,0c-0.2,0-0.3-0.1-0.4-0.1c-0.1-0.1-0.2-0.2-0.2-0.3c0,0,0-0.1,0-0.2C112.4,65.1,112.4,65.1,112.3,65.1z"/>
		</g>
		<g>
			<path style="fill:#1A1A1A;" d="M119.3,69.5c-0.2,0-0.4-0.1-0.6-0.2c0,0,0,0,0,0c0,0,0,0-0.1-0.1l-0.1-0.1c-0.1,0-0.1-0.1-0.2-0.1
				c-0.1,0-0.1-0.1-0.1-0.1c-0.2-0.3-0.3-0.6-0.5-0.9c-0.2-0.3-0.3-0.7-0.5-1c-0.2-0.3-0.3-0.7-0.4-1c-0.1-0.3-0.2-0.6-0.2-0.9
				c0-0.2-0.1-0.4-0.1-0.5c0-0.1,0-0.3,0-0.4c-0.1-0.1-0.1-0.3,0-0.4l0,0l0-0.1l0.2,0c0,0,0.1-0.1,0.3-0.1c0.1,0,0.1,0,0.2,0
				c0.1,0,0.3,0.1,0.4,0.4c0.1,0.3,0.1,0.5,0.1,0.7c0,0.2,0.1,0.4,0.1,0.5c0.3,0.7,0.6,1.4,1,2.1c0-0.1,0-0.2,0-0.3
				c0-0.4,0-0.8,0-1.2c0-0.3,0-0.5,0-0.8c0-0.3,0-0.5,0-0.7c0-0.3,0.1-0.5,0.2-0.7c0.1-0.2,0.2-0.5,0.4-0.7c0.2-0.2,0.4-0.2,0.6-0.2
				c0.3,0,0.5,0.1,0.7,0.3c0.1,0.1,0.2,0.2,0.3,0.3c0.2,0.1,0.3,0.3,0.4,0.4c0.1,0.3,0.3,0.6,0.4,1c0.1,0.4,0.2,0.8,0.3,1.2
				c0.1,0.4,0.3,0.8,0.4,1.1c0.1,0.3,0.3,0.5,0.5,0.7c0.1,0,0.2,0,0.3-0.1c0.1,0,0.2-0.1,0.3-0.2c0.1-0.1,0.2-0.1,0.2-0.2l0.2-0.3
				c0.2-0.2,0.3-0.4,0.4-0.6c0.1-0.2,0.3-0.5,0.4-0.7c0.1-0.3,0.2-0.5,0.3-0.8c0.1-0.3,0.2-0.5,0.2-0.7c0.1-0.2,0.2-0.3,0.3-0.3
				l0.1,0c0.1,0,0.1,0,0.2,0c0.1,0,0.2,0.1,0.3,0.2c0.1,0.1,0.2,0.2,0.2,0.4c-0.1,0.6-0.3,1.2-0.4,1.8c-0.2,0.6-0.4,1.2-0.8,1.6
				c-0.1,0.1-0.1,0.2-0.2,0.3c-0.1,0.1-0.2,0.2-0.2,0.3c-0.1,0.1-0.2,0.2-0.3,0.3c-0.1,0.1-0.3,0.2-0.4,0.2c-0.1,0-0.3,0.1-0.5,0.1
				c-0.1,0-0.3,0-0.4,0c-0.3,0-0.5-0.1-0.6-0.2l-0.4-0.3l-0.2-0.2c-0.1-0.1-0.2-0.1-0.2-0.2c-0.3-0.3-0.5-0.7-0.6-1
				c-0.1-0.3-0.3-0.7-0.4-1c-0.1-0.3-0.2-0.5-0.2-0.8c0,0,0,0.9-0.1,1.4c0,0.4-0.1,0.9-0.1,1.3c-0.1,0.5-0.2,0.9-0.3,1.3
				C119.8,69.4,119.6,69.5,119.3,69.5L119.3,69.5z"/>
		</g>
	</g>
</g>
</svg>
